<svg xmlns="http://www.w3.org/2000/svg" viewBox="0 0 847.29 1212.98"><defs><style>.cls-1{fill:none;stroke:#f2f2f2;stroke-miterlimit:10;stroke-width:4px;}</style></defs><title>ex</title><g id="Layer_2" data-name="Layer 2"><g id="Layer_1-2" data-name="Layer 1"><polyline class="cls-1" points="640.56 1212.04 2 8.04 2 1212.04"/><polyline class="cls-1" points="674.68 1212.04 36.12 8.04 36.12 1212.04"/><polyline class="cls-1" points="708.8 1212.04 70.24 8.04 70.24 1212.04"/><polyline class="cls-1" points="742.92 1212.04 104.36 8.04 104.36 1212.04"/><polyline class="cls-1" points="777.04 1212.04 138.49 8.04 138.49 1212.04"/><polyline class="cls-1" points="811.17 1212.04 172.61 8.04 172.61 1212.04"/><polyline class="cls-1" points="845.29 1212.04 206.73 8.04 206.73 1212.04"/><polyline class="cls-1" points="206.73 1212.04 845.29 8.04 845.29 1212.04"/><polyline class="cls-1" points="172.61 1212.04 811.17 8.04 811.17 1212.04"/><polyline class="cls-1" points="138.49 1212.04 777.04 8.04 777.04 1212.04"/><polyline class="cls-1" points="104.36 1212.04 742.92 8.04 742.92 1212.04"/><polyline class="cls-1" points="70.24 1212.04 708.8 8.04 708.8 1212.04"/><polyline class="cls-1" points="36.12 1212.04 674.68 8.04 674.68 1212.04"/><polyline class="cls-1" points="2 1212.04 640.56 8.04 640.56 1212.04"/></g></g></svg>