<svg xmlns="http://www.w3.org/2000/svg" viewBox="0 0 596.85 578.49"><defs><style>.cls-1{fill:none;stroke:#fff;stroke-miterlimit:10;}</style></defs><title>orbit1</title><g id="Layer_2" data-name="Layer 2"><g id="Layer_1-2" data-name="Layer 1"><ellipse class="cls-1" cx="298.42" cy="289.25" rx="93.14" ry="93.75"/><path class="cls-1" d="M388.39,265c14.64,55-13.76,110.48-63.45,123.88S223.1,368.53,208.46,313.51,222.22,203,271.91,189.63,373.75,210,388.39,265Z"/><path class="cls-1" d="M378.46,240c29.71,54.64,18,121-26.25,148.15s-104.12,4.93-133.83-49.71-18-121,26.25-148.15S348.75,185.39,378.46,240Z"/><path class="cls-1" d="M361.81,216.1C406,266.41,413.37,340,378.36,380.35s-99.18,32.36-143.33-18-51.56-123.86-16.55-164.25S317.66,165.78,361.81,216.1Z"/><path class="cls-1" d="M339,195c56.88,42,84.83,118.17,62.44,170.21s-86.65,60.22-143.52,18.26-84.83-118.17-62.44-170.21S282.09,153,339,195Z"/><path class="cls-1" d="M310.93,178.56C377.73,208.32,426.29,282,419.39,343.14s-66.66,86.56-133.47,56.79S170.56,296.48,177.46,235.35,244.12,148.79,310.93,178.56Z"/><path class="cls-1" d="M279.19,168.38C352.14,182.6,419.89,248.25,430.51,315S390.6,424.34,317.65,410.11,177,330.25,166.34,263.49,206.25,154.16,279.19,168.38Z"/><path class="cls-1" d="M245.66,165.83C320.15,161.94,404.15,214,433.29,282.2s-7.62,126.57-82.11,130.46S192.69,364.45,163.56,296.29,171.18,169.73,245.66,165.83Z"/><path class="cls-1" d="M212.56,171.86c70.85-23.54,166.72,9.93,214.15,74.76s28.44,136.47-42.41,160-166.72-9.93-214.15-74.76S141.71,195.4,212.56,171.86Z"/><path class="cls-1" d="M182.28,186.89c61.77-43.47,163.85-32.88,228,23.64s66.07,137.59,4.29,181.06-163.85,32.88-228-23.64S120.51,230.36,182.28,186.89Z"/><path class="cls-1" d="M157.29,210.75c47.37-62.28,149-77.63,226.91-34.28s102.73,129,55.36,191.26-149,77.63-226.91,34.28S109.91,273,157.29,210.75Z"/><path class="cls-1" d="M139.9,242.61C168,164.1,261.83,121.32,349.38,147.08S485.1,257.36,457,335.88,335,457.17,247.46,431.41,111.75,321.13,139.9,242.61Z"/><path class="cls-1" d="M132.11,281c5-90.76,83.47-160.64,175.33-156.08s162.28,81.82,157.3,172.58S381.26,458.13,289.41,453.58,127.13,371.76,132.11,281Z"/><path class="cls-1" d="M135.44,323.81c-20.86-97.73,35.2-192.43,125.21-211.52S440.54,157,461.4,254.68,426.21,447.11,336.2,466.2,156.31,421.54,135.44,323.81Z"/><path class="cls-1" d="M150.77,368.43C103,270,130.34,154.8,211.89,111.07s186.39.58,234.19,99S466.5,423.69,385,467.42,198.57,466.84,150.77,368.43Z"/><path class="cls-1" d="M178.2,411.85c-74-92.1-80.16-221.66-13.76-289.37s180.21-47.94,254.2,44.17S498.8,388.3,432.41,456,252.2,504,178.2,411.85Z"/><path class="cls-1" d="M217,450.84C119.45,372.25,76.86,236.2,121.84,147s160.51-97.88,258-19.3S520,342.29,475,431.54,314.5,529.42,217,450.84Z"/><path class="cls-1" d="M265.45,482.16C149,424.07,69.4,290.61,87.61,184.06S215,38.24,331.39,96.34,527.45,287.89,509.24,394.43,381.88,540.25,265.45,482.16Z"/><path class="cls-1" d="M321.14,502.81C192.25,471.42,77.59,350.36,65,232.41S146.81,44.3,275.71,75.69s243.55,152.45,256.1,270.4S450,534.2,321.14,502.81Z"/><path class="cls-1" d="M380.77,510.24c-133.38.23-278.37-98.53-323.85-220.58S82.7,68.48,216.08,68.25s278.37,98.53,323.85,220.58S514.15,510,380.77,510.24Z"/><path class="cls-1" d="M440.47,502.6c-128.77,35-296.75-32.17-375.2-150S27.61,110.88,156.38,75.89s296.75,32.17,375.2,150S569.24,467.61,440.47,502.6Z"/><path class="cls-1" d="M496,478.94c-114.49,70.73-295.74,43.13-404.85-61.63s-104.74-247,9.74-317.75,295.74-43.13,404.85,61.63S610.46,408.21,496,478.94Z"/><path class="cls-1" d="M542.9,439.33c-90.58,105-273.46,122.88-408.48,40S-36.63,244.14,54,139.16s273.46-122.88,408.48-40S633.48,334.36,542.9,439.33Z"/><path class="cls-1" d="M577,385c-57.8,135.13-229.39,201.8-383.25,148.91S-38,328.61,19.83,193.47,249.23-8.33,403.09,44.57,634.82,249.89,577,385Z"/><path class="cls-1" d="M594.61,318.43C577,477.07,430.11,592.61,266.53,576.49S-15.38,418.71,2.24,260.06,166.74-14.12,330.32,2,612.22,159.79,594.61,318.43Z"/></g></g></svg>