<svg xmlns="http://www.w3.org/2000/svg" viewBox="0 0 316.7 232.48"><defs><style>.cls-1{stroke:#f2f2f2;stroke-miterlimit:10;}</style></defs><title>quads</title><g id="Layer_2" data-name="Layer 2"><g id="Layer_1-2" data-name="Layer 1"><polygon class="cls-1" points="56.02 51.57 0.97 128.82 214.68 128.82 214.68 0.69 56.02 51.57"/><polygon class="cls-1" points="66.17 61.88 11.12 139.13 224.83 139.13 224.83 11 66.17 61.88"/><polygon class="cls-1" points="76.32 72.2 21.27 149.45 234.98 149.45 234.98 21.32 76.32 72.2"/><polygon class="cls-1" points="86.47 82.52 31.43 159.77 245.13 159.77 245.13 31.63 86.47 82.52"/><polygon class="cls-1" points="96.62 92.83 41.58 170.08 255.28 170.08 255.28 41.95 96.62 92.83"/><polygon class="cls-1" points="106.78 103.15 51.73 180.4 265.44 180.4 265.44 52.27 106.78 103.15"/><polygon class="cls-1" points="116.93 113.47 61.88 190.72 275.59 190.72 275.59 62.58 116.93 113.47"/><polygon class="cls-1" points="127.08 123.78 72.03 201.03 285.74 201.03 285.74 72.9 127.08 123.78"/><polygon class="cls-1" points="137.23 134.1 82.18 211.35 295.89 211.35 295.89 83.22 137.23 134.1"/><polygon class="cls-1" points="147.38 144.41 92.34 221.66 306.04 221.66 306.04 93.53 147.38 144.41"/><polygon class="cls-1" points="157.53 154.73 102.49 231.98 316.2 231.98 316.2 103.85 157.53 154.73"/></g></g></svg>