<svg xmlns="http://www.w3.org/2000/svg" viewBox="0 0 343.5 618.39"><defs><style>.cls-1{fill:none;stroke:#fff;stroke-miterlimit:10;}</style></defs><title>rock</title><g id="Layer_2" data-name="Layer 2"><g id="Layer_1-2" data-name="Layer 1"><polygon class="cls-1" points="128.6 1.16 221.34 30.34 260.42 107.45 184.35 64.73 128.6 1.16"/><polygon class="cls-1" points="128.34 0.9 83.02 96.77 167.94 180.13 184.09 64.47 128.34 0.9"/><polygon class="cls-1" points="260.16 107.19 322.68 180.13 341.96 314.03 271.1 239 260.16 107.19"/><polygon class="cls-1" points="221.6 30.08 304.97 90.52 322.68 180.13 260.16 107.19 221.6 30.08"/><polygon class="cls-1" points="83.02 96.77 58.53 198.37 94.48 283.29 112.19 188.21 83.02 96.77"/><polygon class="cls-1" points="112.19 188.21 94.48 283.29 131.47 351.54 151.27 233.27 112.19 188.21"/><polygon class="cls-1" points="58.53 198.37 1.22 281.73 83.02 364.57 94.48 283.29 58.53 198.37"/><polygon class="cls-1" points="94.48 283.29 83.02 364.57 123.13 436.99 133.55 351.54 94.48 283.29"/><polygon class="cls-1" points="167.94 180.13 271.1 239 221.6 360.14 151.27 233.27 167.94 180.13"/><polygon class="cls-1" points="151.27 233.27 133.55 351.54 189.3 476.58 221.6 359.88 151.27 233.27"/><polygon class="cls-1" points="271.1 239 221.6 359.88 260.68 446.37 341.96 314.03 271.1 239"/><polygon class="cls-1" points="189.3 476.58 221.6 359.88 260.16 446.37 231.5 569.32 189.3 476.58"/><polygon class="cls-1" points="122.61 436.99 184.09 528.16 189.3 476.58 133.55 351.54 122.61 436.99"/><polygon class="cls-1" points="231.5 569.32 199.2 616.21 184.09 528.16 189.3 476.58 231.5 569.32"/><polygon class="cls-1" points="151.27 233.27 271.1 239 167.94 180.13 151.27 233.27"/><polygon class="cls-1" points="271.1 239 260.16 446.37 221.6 359.88 271.1 239"/><polygon class="cls-1" points="133.55 351.54 221.6 359.88 151.27 233.27 133.55 351.54"/><polygon class="cls-1" points="122.61 436.99 143.97 535.46 199.2 616.21 184.09 528.16 122.61 436.99"/><polygon class="cls-1" points="184.09 528.16 143.97 535.46 199.2 616.21 184.09 528.16"/><polygon class="cls-1" points="260.16 446.37 189.3 476.58 231.5 569.32 260.16 446.37"/><polygon class="cls-1" points="271.1 239 322.68 180.13 341.96 314.03 271.1 239"/><polygon class="cls-1" points="1.22 281.2 94.48 283.29 83.02 364.57 1.22 281.2"/><polygon class="cls-1" points="83.02 364.57 133.55 351.54 122.61 436.99 83.02 364.57"/><polygon class="cls-1" points="167.94 180.13 184.09 64.99 260.16 107.19 167.94 180.13"/><polygon class="cls-1" points="167.94 180.13 271.1 239 260.16 107.19 167.94 180.13"/><polygon class="cls-1" points="83.02 96.77 112.19 188.21 151.27 233.27 167.94 180.13 83.02 96.77"/><polygon class="cls-1" points="1.22 281.2 1.22 161.37 58.53 198.37 1.22 281.2"/><polygon class="cls-1" points="1.22 161.37 83.02 96.77 58.53 198.37 1.22 161.37"/><polygon class="cls-1" points="167.94 180.13 112.19 188.21 151.27 233.27 167.94 180.13"/><polygon class="cls-1" points="94.48 283.29 151.27 233.27 133.55 351.54 94.48 283.29"/><polygon class="cls-1" points="122.61 436.99 189.3 476.58 133.55 351.54 122.61 436.99"/><polygon class="cls-1" points="184.09 528.16 231.5 569.32 199.2 616.21 184.09 528.16"/><polygon class="cls-1" points="58.53 198.37 83.02 96.77 112.19 188.21 58.53 198.37"/><polygon class="cls-1" points="260.16 107.19 304.97 90.52 322.68 180.13 260.16 107.19"/><polygon class="cls-1" points="184.09 64.99 221.6 30.08 260.16 107.19 184.09 64.99"/><polygon class="cls-1" points="83.28 96.77 183.83 64.99 168.2 180.13 83.28 96.77"/><polygon class="cls-1" points="231.24 569.32 306.79 453.14 259.9 446.37 231.24 569.32"/><polygon class="cls-1" points="306.79 453.14 342.22 314.03 259.9 446.37 306.79 453.14"/></g></g></svg>