<svg xmlns="http://www.w3.org/2000/svg" viewBox="0 0 620.5 620.5"><defs><style>.cls-1{fill:none;stroke:#fff;stroke-miterlimit:10;}</style></defs><title>tube</title><g id="Layer_2" data-name="Layer 2"><g id="Layer_1-2" data-name="Layer 1"><circle class="cls-1" cx="38.25" cy="38.25" r="37.75"/><circle class="cls-1" cx="46.75" cy="46.75" r="37.75"/><circle class="cls-1" cx="55.25" cy="55.25" r="37.75"/><circle class="cls-1" cx="63.75" cy="63.75" r="37.75"/><circle class="cls-1" cx="72.25" cy="72.25" r="37.75"/><circle class="cls-1" cx="80.75" cy="80.75" r="37.75"/><circle class="cls-1" cx="89.25" cy="89.25" r="37.75"/><circle class="cls-1" cx="97.75" cy="97.75" r="37.75"/><circle class="cls-1" cx="106.25" cy="106.25" r="37.75"/><circle class="cls-1" cx="114.75" cy="114.75" r="37.75"/><circle class="cls-1" cx="123.25" cy="123.25" r="37.75"/><circle class="cls-1" cx="131.75" cy="131.75" r="37.75"/><circle class="cls-1" cx="140.25" cy="140.25" r="37.75"/><circle class="cls-1" cx="148.75" cy="148.75" r="37.75"/><circle class="cls-1" cx="157.25" cy="157.25" r="37.75"/><circle class="cls-1" cx="165.75" cy="165.75" r="37.75"/><circle class="cls-1" cx="174.25" cy="174.25" r="37.75"/><circle class="cls-1" cx="182.75" cy="182.75" r="37.75"/><circle class="cls-1" cx="191.25" cy="191.25" r="37.75"/><circle class="cls-1" cx="199.75" cy="199.75" r="37.75"/><circle class="cls-1" cx="208.25" cy="208.25" r="37.75"/><circle class="cls-1" cx="216.75" cy="216.75" r="37.75"/><circle class="cls-1" cx="225.25" cy="225.25" r="37.75"/><circle class="cls-1" cx="233.75" cy="233.75" r="37.75"/><circle class="cls-1" cx="242.25" cy="242.25" r="37.75"/><circle class="cls-1" cx="250.75" cy="250.75" r="37.75"/><circle class="cls-1" cx="259.25" cy="259.25" r="37.75"/><circle class="cls-1" cx="267.75" cy="267.75" r="37.75"/><circle class="cls-1" cx="276.25" cy="276.25" r="37.75"/><circle class="cls-1" cx="284.75" cy="284.75" r="37.75"/><circle class="cls-1" cx="293.25" cy="293.25" r="37.75"/><circle class="cls-1" cx="301.75" cy="301.75" r="37.75"/><circle class="cls-1" cx="310.25" cy="310.25" r="37.75"/><circle class="cls-1" cx="318.75" cy="318.75" r="37.75"/><circle class="cls-1" cx="327.25" cy="327.25" r="37.75"/><circle class="cls-1" cx="335.75" cy="335.75" r="37.75"/><circle class="cls-1" cx="344.25" cy="344.25" r="37.75"/><circle class="cls-1" cx="352.75" cy="352.75" r="37.75"/><circle class="cls-1" cx="361.25" cy="361.25" r="37.75"/><circle class="cls-1" cx="369.75" cy="369.75" r="37.75"/><circle class="cls-1" cx="378.25" cy="378.25" r="37.75"/><circle class="cls-1" cx="386.75" cy="386.75" r="37.75"/><circle class="cls-1" cx="395.25" cy="395.25" r="37.75"/><circle class="cls-1" cx="403.75" cy="403.75" r="37.75"/><circle class="cls-1" cx="412.25" cy="412.25" r="37.75"/><circle class="cls-1" cx="420.75" cy="420.75" r="37.75"/><circle class="cls-1" cx="429.25" cy="429.25" r="37.75"/><circle class="cls-1" cx="437.75" cy="437.75" r="37.75"/><circle class="cls-1" cx="446.25" cy="446.25" r="37.75"/><circle class="cls-1" cx="454.75" cy="454.75" r="37.75"/><circle class="cls-1" cx="463.25" cy="463.25" r="37.75"/><circle class="cls-1" cx="471.75" cy="471.75" r="37.75"/><circle class="cls-1" cx="480.25" cy="480.25" r="37.75"/><circle class="cls-1" cx="488.75" cy="488.75" r="37.75"/><circle class="cls-1" cx="497.25" cy="497.25" r="37.75"/><circle class="cls-1" cx="505.75" cy="505.75" r="37.75"/><circle class="cls-1" cx="514.25" cy="514.25" r="37.75"/><circle class="cls-1" cx="522.75" cy="522.75" r="37.75"/><circle class="cls-1" cx="531.25" cy="531.25" r="37.75"/><circle class="cls-1" cx="539.75" cy="539.75" r="37.75"/><circle class="cls-1" cx="548.25" cy="548.25" r="37.75"/><circle class="cls-1" cx="556.75" cy="556.75" r="37.75"/><circle class="cls-1" cx="565.25" cy="565.25" r="37.75"/><circle class="cls-1" cx="573.75" cy="573.75" r="37.75"/><circle class="cls-1" cx="582.25" cy="582.25" r="37.75"/></g></g></svg>