<svg xmlns="http://www.w3.org/2000/svg" viewBox="0 0 489.09 478.59"><defs><style>.cls-1{fill:#d6b2fd;}.cls-2{fill:#271644;}</style></defs><title>ae</title><g id="Layer_2" data-name="Layer 2"><g id="Layer_1-2" data-name="Layer 1"><path class="cls-1" d="M244.55,0Q365.67,0,486.8,0c1.87,0,2.3.42,2.3,2.3q-.08,237,0,474c0,1.87-.42,2.3-2.3,2.3q-242.25-.08-484.5,0c-1.87,0-2.3-.42-2.3-2.3q.08-237,0-474C0,.42.42,0,2.3,0Q123.42.08,244.55,0ZM24.63,281.56c0,.25-.06.5-.06.75q0,81.87-.09,163.74c0,2.31,1.17,2,2.59,2q217.48,0,435,.06c2.07,0,2.58-.48,2.58-2.57q-.09-211.48,0-423c0-2.05-.45-2.6-2.56-2.6-28.75.08-57.5.06-86.24.07-8.08,0-16.16,0-24.24.07-.91,0-1.83-.09-2.74-.09Q188.2,20,27.58,20c-2.51,0-3.1.57-3.1,3.09q.11,127.87.06,255.73C24.55,279.73,24.6,280.64,24.63,281.56ZM244.55,468.14H13.05c-1.58,0-3.17,0-4.75.06-.68,0-1.67-.35-1.93.63-.2.75.38,1.41.89,2,1.58,1.8,3.72,1.61,5.79,1.61H476a22.27,22.27,0,0,0,2.75-.08,4.52,4.52,0,0,0,3.51-2.12c.73-1.2.78-2-1-2s-3.33-.05-5-.05Z"/><path class="cls-2" d="M24.63,281.56c0-.91-.09-1.83-.09-2.74q0-127.87-.06-255.73c0-2.52.59-3.09,3.1-3.09q160.62.1,321.23.06c.91,0,1.83.06,2.74.09a6.13,6.13,0,0,0,1.33,2.64,204.58,204.58,0,0,1,12.49,21A237.21,237.21,0,0,1,385,97.45a243.94,243.94,0,0,1,6.49,54.69c.06,6.31-.49,12.59-1,18.87a175.72,175.72,0,0,1-2.48,19.45c-.1.55,0,1.29-.73,1.4s-.92-.6-1.19-1.1c-.66-1.24-1.13-2.67-2.89-2.75-4.22-6.67-9.23-12.61-15.86-17.05-12.76-8.53-26.93-10.6-41.78-8.73-17.92,2.26-31.77,11.5-42,26.11-9.93,14.14-14.53,30.18-15.91,47.23-1.18,14.48-.51,28.82,3.35,42.93,3.65,13.33,9.79,25.19,20,34.73,3.67,3.42,8,6,12,8.84l.58.45a.82.82,0,0,1,.42.07l.58.43a.88.88,0,0,1,.42.06c0,1.48,0,2.71-1.5,3.89a194.91,194.91,0,0,1-31.06,19.81,188.24,188.24,0,0,1-31.88,12.85,185.79,185.79,0,0,1-44.48,7.83,183.6,183.6,0,0,1-38.75-2A193.88,193.88,0,0,1,102.48,348a196.47,196.47,0,0,1-47.05-32.39,200.11,200.11,0,0,1-28.51-32.24A3.4,3.4,0,0,0,24.63,281.56ZM204.28,266c1.51,5.35,3.09,10.68,4.52,16.06,3.4,12.84,7.28,25.55,10.44,38.46.53,2.18.68,4.84,2.8,6.46.2,1.15,1.08,1.08,1.92,1.08h32.1c.95,0,1.88,0,2.06-1.25a3.65,3.65,0,0,0,.12-3.12c-.76-2.44-1.46-4.9-2.2-7.34-6.72-22.12-12.71-44.46-19.91-66.44-2.09-6.38-3.55-13-5.45-19.42q-12.45-42.29-25-84.56c-3.58-12.11-7.17-24.22-10.66-36.36-.56-1.94-1.5-2.59-3.53-2.57-13.25.09-26.49.11-39.74,0-2.52,0-3.19.94-3.2,3.2a54.49,54.49,0,0,1-1.85,15.07q-6.56,22.75-13.09,45.51-12.67,44.48-25.28,89-9,31.49-18,63c-.42,1.46-.81,2.9.17,4.3.27,1.31,1.33,1,2.19,1q14.06,0,28.12,0c.86,0,1.92.28,2.2-1a4.85,4.85,0,0,0,1.54-2.74c1.77-6.82,3.61-13.63,5.43-20.44q5.06-18.9,10.14-37.79Z"/><path class="cls-2" d="M383.28,188c1.76.08,2.23,1.51,2.89,2.75.26.5.46,1.2,1.19,1.1s.63-.85.73-1.4A175.72,175.72,0,0,0,390.56,171c.49-6.28,1-12.56,1-18.87A243.94,243.94,0,0,0,385,97.45a237.21,237.21,0,0,0-19.67-53.7,204.58,204.58,0,0,0-12.49-21,6.13,6.13,0,0,1-1.33-2.64c8.08,0,16.16-.07,24.24-.07,28.75,0,57.5,0,86.24-.07,2.11,0,2.56.54,2.56,2.6q-.07,211.48,0,423c0,2.09-.51,2.57-2.58,2.57q-217.48-.09-435-.06c-1.42,0-2.6.28-2.59-2q.13-81.87.09-163.74c0-.25,0-.5.06-.75a3.4,3.4,0,0,1,2.28,1.79,200.11,200.11,0,0,0,28.51,32.24A196.47,196.47,0,0,0,102.48,348a193.88,193.88,0,0,0,54.91,17.5,183.6,183.6,0,0,0,38.75,2,185.79,185.79,0,0,0,44.48-7.83,188.24,188.24,0,0,0,31.88-12.85A194.91,194.91,0,0,0,303.55,327c1.49-1.17,1.49-2.41,1.5-3.89a59.58,59.58,0,0,0,10.11,3.85,101.8,101.8,0,0,0,28.67,3.12c12.14-.4,24.05-1.83,35.23-7a4.62,4.62,0,0,0,3-4.67c-.07-8.08,0-16.16,0-24.24,0-2.54-.5-2.93-2.76-1.94-11.39,5-23.36,6.39-35.63,5.91-7.66-.3-15-1.79-21.64-5.94.39-.49.82-.39,1.33-.17A43.62,43.62,0,0,0,337.28,296a7.07,7.07,0,0,0,7-3,212,212,0,0,0,22.63-36.07c1.41-2.85,1.42-2.85-1.85-2.85l-61.24,0c0-1.9,1.53-.91,2.22-.92q27.34-.11,54.68-.06c8.82,0,17.62-.2,26.41-1,3.83-.35,4.46-.71,5-4.51C395,226.84,393.83,206.73,383.28,188Z"/><path class="cls-1" d="M244.55,468.14H476.29c1.67,0,3.33.07,5,.05s1.74.83,1,2a4.52,4.52,0,0,1-3.51,2.12,22.27,22.27,0,0,1-2.75.08h-463c-2.08,0-4.22.2-5.79-1.61-.5-.57-1.08-1.22-.89-2,.26-1,1.25-.6,1.93-.63,1.58-.08,3.17-.06,4.75-.06Z"/><path class="cls-1" d="M222,327c-2.12-1.63-2.26-4.29-2.8-6.46-3.16-12.91-7-25.62-10.44-38.46-1.42-5.37-3-10.7-4.52-16.06-.18-1.28-1.19-.92-1.94-.92q-30.16,0-60.32,0c-.73,0-1.79-.41-1.86,1q-5.07,18.9-10.14,37.79c-1.82,6.81-3.67,13.62-5.43,20.44a4.85,4.85,0,0,1-1.54,2.74H90.54c-1-1.4-.59-2.84-.17-4.3q9-31.48,18-63,12.65-44.48,25.28-89,6.49-22.77,13.09-45.51a54.49,54.49,0,0,0,1.85-15.07c0-2.26.68-3.22,3.2-3.2,13.25.12,26.49.1,39.74,0,2,0,3,.63,3.53,2.57,3.5,12.14,7.09,24.25,10.66,36.36q12.49,42.28,25,84.56c1.9,6.45,3.36,13,5.45,19.42,7.2,22,13.19,44.32,19.91,66.44.74,2.44,1.44,4.9,2.2,7.34a3.65,3.65,0,0,1-.12,3.12,6.6,6.6,0,0,1-1.21.22ZM148.7,232.54h2c14.41,0,28.81,0,43.22,0,1.93,0,2.33-.27,1.79-2.31q-10.05-37.94-19.89-75.93c-1.26-4.83-2.32-9.71-3.47-14.57C165.52,170.93,156.67,201.44,148.7,232.54Z"/><path class="cls-1" d="M322,292.12c6.62,4.15,14,5.64,21.64,5.94,12.28.49,24.25-.94,35.63-5.91,2.26-1,2.76-.6,2.76,1.94,0,8.08,0,16.16,0,24.24a4.62,4.62,0,0,1-3,4.67c-11.18,5.21-23.09,6.64-35.23,7a101.8,101.8,0,0,1-28.67-3.12,59.58,59.58,0,0,1-10.11-3.85.88.88,0,0,0-.42-.06c-.11-.25-.21-.52-.58-.43a.82.82,0,0,0-.42-.07c-.12-.25-.19-.55-.58-.45-4-2.89-8.35-5.42-12-8.84-10.23-9.54-16.37-21.39-20-34.73-3.86-14.11-4.53-28.45-3.35-42.93,1.39-17,6-33.09,15.91-47.23,10.27-14.62,24.12-23.86,42-26.11,14.85-1.87,29,.19,41.78,8.73,6.63,4.44,11.64,10.38,15.86,17.05,10.55,18.71,11.71,38.82,8.8,59.52-.54,3.8-1.17,4.16-5,4.51-8.79.8-17.59,1-26.41,1q-27.34,0-54.68.06c-.69,0-2.17-1-2.22.92a47,47,0,0,0,6.33,26.06A30.53,30.53,0,0,0,322,292.12Zm9.07-66.56v-.1c8.25,0,16.5-.05,24.74,0,2.36,0,3.41-.68,3.4-3.24a40.31,40.31,0,0,0-2.89-15.35c-3.73-9-10.13-14.8-20.08-15.77-10.38-1-18.78,2.66-24.7,11.43-4.24,6.28-6.13,13.39-7.34,20.76-.29,1.76,0,2.29,1.88,2.27C314.42,225.5,322.75,225.55,331.08,225.55Z"/><path class="cls-2" d="M140.16,266c.07-1.38,1.13-1,1.86-1q30.16,0,60.32,0c.75,0,1.76-.36,1.94.92Z"/><path class="cls-2" d="M222,327l34.86.06a6.6,6.6,0,0,0,1.21-.22c-.18,1.25-1.11,1.25-2.05,1.24H224C223.12,328,222.23,328.11,222,327Z"/><path class="cls-2" d="M90.54,327h32.51c-.28,1.31-1.34,1-2.2,1q-14.06,0-28.12,0C91.87,328,90.81,328.31,90.54,327Z"/><path class="cls-2" d="M303.05,322.08c.39-.11.46.2.58.45Z"/><path class="cls-2" d="M304.06,322.59c.37-.09.46.18.58.43Z"/><path class="cls-2" d="M322,292.12a30.53,30.53,0,0,1-11.91-12A47,47,0,0,1,303.77,254l61.24,0c3.27,0,3.26,0,1.85,2.85A212,212,0,0,1,344.24,293a7.07,7.07,0,0,1-7,3,43.62,43.62,0,0,1-13.95-4.05C322.83,291.72,322.4,291.62,322,292.12Z"/><path class="cls-2" d="M148.7,232.54c8-31.1,16.82-61.61,23.6-92.76,1.15,4.86,2.22,9.74,3.47,14.57q9.88,38,19.89,75.93c.54,2,.15,2.31-1.79,2.31-14.41-.07-28.81,0-43.22,0Z"/><path class="cls-2" d="M331.08,225.55c-8.33,0-16.67-.06-25,0-1.88,0-2.17-.51-1.88-2.27,1.21-7.37,3.1-14.48,7.34-20.76,5.92-8.77,14.31-12.44,24.7-11.43,10,1,16.36,6.76,20.08,15.77a40.31,40.31,0,0,1,2.89,15.35c0,2.56-1,3.26-3.4,3.24-8.25-.08-16.5,0-24.74,0Z"/></g></g></svg>