<svg xmlns="http://www.w3.org/2000/svg" viewBox="0 0 480.06 468.15"><defs><style>.cls-1{fill:#fd8f00;}.cls-2{fill:#331900;}</style></defs><title>ai</title><g id="Layer_2" data-name="Layer 2"><g id="Layer_1-2" data-name="Layer 1"><path class="cls-1" d="M0,0H480q0,6.75,0,13.5,0,225.47,0,450.94c0,.67,0,1.34,0,2,.1,1.16-.36,1.65-1.56,1.64-2.33,0-4.67.08-7,.08H8.56c-1.75,0-3.5,0-5.25,0C-.52,468,0,468.4,0,464.68Q0,239,0,13.24,0,6.62,0,0ZM240.3,20q-108.61,0-217.23-.06c-2.56,0-3.09.66-3.09,3.14q.09,210.85,0,421.71c0,2.53.53,3.28,3.2,3.28q216.85-.1,433.71,0c2.63,0,3.23-.69,3.23-3.26Q460,234,460.1,23.11c0-2.74-.86-3.16-3.32-3.16Q348.54,20,240.3,20Z"/><path class="cls-2" d="M240.3,20q108.24,0,216.48-.05c2.46,0,3.32.42,3.32,3.16q-.11,210.85,0,421.71c0,2.57-.6,3.26-3.23,3.26Q240,448,23.17,448.07c-2.67,0-3.2-.76-3.2-3.28q.1-210.85,0-421.71c0-2.48.53-3.14,3.09-3.14Q131.69,20.06,240.3,20ZM198.5,265c9.91,0,19.83,0,29.74,0,1.71,0,2.45.43,2.89,2.15,1.71,6.69,3.61,13.33,5.43,20q5,18.42,10.07,36.83c.43,1.59.89,3,3,3q16.62,0,33.24,0c1.56,0,2.07-.86,1.84-2.27a18.52,18.52,0,0,0-.57-2.17q-27.65-93.83-55.3-187.67c-2.4-8.14-4.79-16.28-7.26-24.39-1.17-3.86-1.47-4-5.36-4-12.66,0-25.33.05-38,0-2.43,0-3.21.81-3.24,3.16a62.52,62.52,0,0,1-2.25,16.77c-3.16,10.78-6.16,21.62-9.25,32.43q-17.6,61.67-35.2,123.33-5.79,20.28-11.58,40.56c-1.05,3.71-.6,4.29,3.14,4.29,9,0,18-.09,27,.06,2.59,0,3.62-.89,4.26-3.35,4.87-18.76,9.91-37.48,14.78-56.24.53-2.05,1.39-2.51,3.37-2.49C179,265.08,188.75,265,198.5,265Zm152-19.27h0q0-38.87,0-77.75c0-3.24-.25-3.49-3.36-3.49-9.83,0-19.67,0-29.5,0-2.41,0-3.19.87-3.18,3.23q.07,77.87.05,155.74c0,3.12.44,3.54,3.68,3.54h28.25c4,0,4.05,0,4.05-4Q350.54,284.37,350.54,245.75Zm2.69-124.25c.08-12.24-8-20.47-20.17-20.6-12.46-.13-20.8,8.07-20.82,20.48s7.79,20.46,20.14,20.49C345.12,141.91,353.14,134.07,353.22,121.5Z"/><path class="cls-1" d="M198.5,265c-9.75,0-19.5.06-29.24,0-2,0-2.84.44-3.37,2.49C161,286.23,156,304.94,151.1,323.7c-.64,2.45-1.67,3.39-4.26,3.35-9-.14-18-.05-27-.06-3.74,0-4.19-.59-3.14-4.29q5.77-20.28,11.58-40.56,17.6-61.67,35.2-123.33c3.08-10.81,6.08-21.64,9.25-32.43A62.52,62.52,0,0,0,175,109.61c0-2.36.82-3.18,3.24-3.16,12.66.1,25.33,0,38,0,3.88,0,4.18.13,5.36,4,2.47,8.12,4.86,16.26,7.26,24.39q27.66,93.83,55.3,187.67a18.52,18.52,0,0,1,.57,2.17c.23,1.41-.28,2.27-1.84,2.27q-16.62,0-33.24,0c-2.11,0-2.56-1.46-3-3q-5-18.42-10.07-36.83c-1.82-6.66-3.72-13.3-5.43-20-.44-1.72-1.18-2.17-2.89-2.15C218.33,265.06,208.41,265,198.5,265Zm.06-125.91-.37.09c-1,4.63-1.9,9.28-2.93,13.9-5.78,25.81-12.67,51.33-19.46,76.89-.52,2-.35,2.57,1.86,2.55q21-.13,42,0c2.22,0,2.58-.44,2-2.61-6.49-25-13.28-50-19.37-75.11C201,149.59,199.79,144.35,198.56,139.11Z"/><path class="cls-1" d="M350.54,245.75q0,38.62,0,77.25c0,4,0,4-4.05,4H318.23c-3.24,0-3.68-.42-3.68-3.54q0-77.87-.05-155.74c0-2.36.77-3.25,3.18-3.23,9.83.09,19.67,0,29.5,0,3.11,0,3.36.25,3.36,3.49q0,38.87,0,77.75Z"/><path class="cls-1" d="M353.22,121.5c-.08,12.57-8.1,20.41-20.85,20.38-12.35,0-20.16-8-20.14-20.49s8.37-20.62,20.82-20.48C345.24,101,353.3,109.26,353.22,121.5Z"/><path class="cls-2" d="M198.56,139.11c1.24,5.24,2.45,10.48,3.71,15.71,6.09,25.13,12.88,50.08,19.37,75.11.56,2.18.2,2.63-2,2.61q-21-.14-42,0c-2.21,0-2.38-.6-1.86-2.55,6.79-25.55,13.68-51.08,19.46-76.89,1-4.62,2-9.27,2.93-13.9Z"/></g></g></svg>