<svg xmlns="http://www.w3.org/2000/svg" viewBox="0 0 904 904"><defs><style>.cls-1{fill:#fff;}.cls-2{fill:none;stroke:#fff;stroke-miterlimit:10;stroke-width:16px;}</style></defs><title>dr</title><g id="Layer_2" data-name="Layer 2"><g id="Layer_1-2" data-name="Layer 1"><path class="cls-1" d="M642.74,209l52.16,52.16-52.16,52.16-52.16-52.16L642.74,209m0-22.63-11.31,11.31-52.16,52.16-11.31,11.31,11.31,11.31,52.16,52.16L642.74,336,654,324.66l52.16-52.16,11.31-11.31-11.31-11.31L654,197.71l-11.31-11.31Z"/><path class="cls-1" d="M590.22,261.54l52.16,52.16L309.67,646.42l-52.16-52.16L590.22,261.54m0-22.63-11.31,11.31L246.19,582.94l-11.31,11.31,11.31,11.31,52.16,52.16L309.67,669,321,657.73,653.7,325,665,313.7,653.7,302.39l-52.16-52.16-11.31-11.31Z"/><path class="cls-1" d="M248.25,615l40.84,40.84L209.1,695l39.14-80m-4.53-27.15L233.87,608l-39.14,80-20.51,41.92,41.92-20.51,80-39.14,20.12-9.85L300.4,644.52l-40.84-40.84-15.84-15.84Z"/><circle class="cls-2" cx="452" cy="452" r="444"/></g></g></svg>