<svg xmlns="http://www.w3.org/2000/svg" viewBox="0 0 488 907.06"><defs><style>.cls-1{fill:#e96f00;}.cls-2{fill:#5181a2;}</style></defs><title>ja</title><g id="Layer_2" data-name="Layer 2"><g id="Layer_1-2" data-name="Layer 1"><path class="cls-1" d="M0,890A55.64,55.64,0,0,0,11,883a58,58,0,0,0,12.25-12.94,38.67,38.67,0,0,0,6-15.85,131.87,131.87,0,0,0,1.35-14.55c.59-11.65.3-23.31.31-35q.07-69.43,0-138.86c0-3.71-.3-3.66,3.66-3.65h24.6c.61,0,1.22,0,1.83,0a1.22,1.22,0,0,1,1.28,1.29q0,.71,0,1.42,0,83.76-.1,167.53a143.76,143.76,0,0,1-2.25,26.28,56.84,56.84,0,0,1-19,33,82.65,82.65,0,0,1-23.4,14.47,5.16,5.16,0,0,0-1.61.84H14.23c-.44-.6-.84-1.24-1.32-1.8-2.58-3.05-5.17-6.1-7.79-9.12A49.39,49.39,0,0,0,0,890.38Z"/><path class="cls-1" d="M488,724.87c-2-.08-2-.13-2.07-1.87s0-3.37,0-5.06l-.4-.13L484,721.62c-.29.76-.56,1.52-.87,2.27a1.35,1.35,0,0,1-1.19,1,1.33,1.33,0,0,1-1.38-1c-.64-1.64-1.24-3.29-1.87-4.93a1.8,1.8,0,0,0-.84-1c0,1.1,0,2.21,0,3.31,0,.81,0,1.62,0,2.43a1.13,1.13,0,0,1-1.29,1.22c-.86,0-1.18-.52-1.22-1.3,0-.2,0-.41,0-.61q0-4,0-7.91c0-.91,0-1.78,1.24-2,1.41-.21,2.24,0,2.72,1.13.6,1.36,1.09,2.77,1.65,4.15.22.55.28,1.2.93,1.64.74-.45.82-1.31,1.13-2,.43-1,.78-2,1.17-3,.69-1.78.79-1.86,2.62-1.91.41,0,.81,0,1.22,0Z"/><path class="cls-1" d="M195.62,802.35q0,25.11,0,50.21c0,3.31,0,3.31-3.39,3.32q-8.74,0-17.48,0c-2.34,0-2.46-.12-2.81-2.47q-.79-5.22-1.56-10.45c-.33-2.2-.4-2.25-2.21-.78a90.91,90.91,0,0,1-11.59,8.23,58.75,58.75,0,0,1-30,8.34,62.31,62.31,0,0,1-16.89-2C95.59,852.83,86.82,843.86,84,829.38a49.32,49.32,0,0,1,1.34-25.28A39.29,39.29,0,0,1,98.85,785c7.86-6.14,16.92-9.59,26.54-11.75a123.64,123.64,0,0,1,27.22-2.92c3.73,0,7.45,0,11.18,0,1.94,0,2.12-.18,2.12-2.08,0-4.54,0-9.08,0-13.62a25.86,25.86,0,0,0-1.17-7c-2.17-7.28-7.2-11.6-14.33-13.66-6.2-1.79-12.57-2-18.95-1.55a123.74,123.74,0,0,0-27.5,5.18c-2.34.7-4.64,1.5-7,2.26-2.07.67-2.21.62-2.73-1.57q-1.69-7-3.32-14c-.43-1.84-.36-2,1.39-2.8a134.83,134.83,0,0,1,38.34-10.25c2.49-.28,5-.51,7.49-.61a120.28,120.28,0,0,1,13,0c8,.55,15.87,1.94,23.2,5.47,11.11,5.35,17.63,14.26,20.14,26.22a57.9,57.9,0,0,1,1.18,11.91Q195.62,778.26,195.62,802.35Zm-29.71,3.8c0-4.95,0-9.89,0-14.84,0-1.93-.19-2.11-2.1-2.11-7.92,0-15.86-.27-23.74.79-5.6.75-11.11,1.84-16.16,4.53-5.42,2.88-9.21,7.13-10.55,13.22a30,30,0,0,0,.54,15.86c2.24,7,7.06,11.08,14.12,12.61a32.85,32.85,0,0,0,18.19-1.49,62.93,62.93,0,0,0,18.16-10.62,3.83,3.83,0,0,0,1.56-3.31C165.89,815.91,165.92,811,165.92,806.15Z"/><path class="cls-1" d="M461.68,801.31q0,25.71,0,51.43c0,3.14,0,3.14-3.15,3.14H441.05c-2.45,0-2.49,0-2.86-2.35-.52-3.28-1-6.56-1.49-9.84a14.78,14.78,0,0,0-.27-1.6c-.27-1-.55-1.12-1.39-.47-1.56,1.2-3.05,2.47-4.62,3.65a69.28,69.28,0,0,1-17.09,9.7,57.69,57.69,0,0,1-19.45,3.77,60.75,60.75,0,0,1-19.47-2.41c-13-4.07-21.23-12.66-24.06-26.07-2-9.6-1.69-19.14,1.92-28.38a39.8,39.8,0,0,1,14.31-18.06A63.41,63.41,0,0,1,387,774.4a118.61,118.61,0,0,1,22.2-3.71c6.77-.54,13.54-.28,20.31-.38,2.73,0,2.74,0,2.74-2.68,0-3.59.07-7.18,0-10.77a30.28,30.28,0,0,0-2.53-12.45,19,19,0,0,0-10.94-9.74,39.7,39.7,0,0,0-13.14-2.39,109.48,109.48,0,0,0-32.3,4.36c-3.4.93-6.75,2-10.08,3.18-2.13.74-2.29.65-2.79-1.45q-1.7-7.11-3.38-14.24c-.44-1.88-.41-1.93,1.42-2.71a135.76,135.76,0,0,1,37.12-10.11,122.87,122.87,0,0,1,14.38-1c9,0,18,.81,26.57,4,7.82,2.94,14.39,7.5,18.9,14.69a42,42,0,0,1,5.77,16.36,53.42,53.42,0,0,1,.45,7.9q0,24,0,48Zm-29.46,5c0-5.08,0-10.16,0-15.24,0-1.69-.19-1.87-1.88-1.89-3.11,0-6.23,0-9.34,0a107,107,0,0,0-17.8,1.25,41.31,41.31,0,0,0-13.65,4.42,19.27,19.27,0,0,0-10.18,13.7,33.25,33.25,0,0,0-.26,11.11c1.19,8.53,6.54,14.58,14.89,16.51a31.35,31.35,0,0,0,16-.68c7.74-2.26,14.42-6.43,20.63-11.46a3.76,3.76,0,0,0,1.58-3.26C432.18,815.93,432.22,811.13,432.22,806.32Z"/><path class="cls-1" d="M306,0a5.15,5.15,0,0,1,2,1.89,69.61,69.61,0,0,1,13.85,33.62c1.91,13.82-.26,27.15-4.91,40.14-5.52,15.43-14.16,29.06-24.36,41.77a239.18,239.18,0,0,1-21,22.92c-8.9,8.54-18.26,16.56-27.95,24.2a210.88,210.88,0,0,0-23,20.85,115.07,115.07,0,0,0-18.73,25.46c-5.47,10.47-8.44,21.55-7.73,33.44a69,69,0,0,0,4.84,21.11A133.64,133.64,0,0,0,212.65,291c5.73,8.56,11.68,17,17.49,25.47a157.79,157.79,0,0,1,13.06,22,5,5,0,0,1,.79,2c-.52.39-.75-.1-1-.33-2.87-2.58-5.74-5.17-8.58-7.78-10.31-9.51-20.46-19.2-30.13-29.35s-18.79-20.64-26.59-32.27a109.26,109.26,0,0,1-12.44-23.92,60.1,60.1,0,0,1-3.73-19.07,49.94,49.94,0,0,1,6.26-25.36A101.52,101.52,0,0,1,181,184.15c9.35-10.6,19.85-20,30.78-28.9,11.55-9.43,23.45-18.4,35-27.79,7.1-5.76,14.05-11.69,20.75-17.93A173.45,173.45,0,0,0,290,84.47c8.59-11.84,14.71-24.79,17.5-39.22a97,97,0,0,0,1.19-26.5,116.25,116.25,0,0,0-2.8-17.23A1.69,1.69,0,0,1,306,0Z"/><path class="cls-1" d="M277.59,825.54a3.39,3.39,0,0,0,1-1.86,580.89,580.89,0,0,0,17.92-60.59c3.7-15.7,6.72-31.54,8.88-47.53.05-.4.14-.8.21-1.2a1.42,1.42,0,0,1,1.52-1.33l1.42,0H335c1.94,0,2.1.22,1.72,2.17-1.27,6.52-2.49,13-3.87,19.54q-4.4,20.68-10.22,41a535.21,535.21,0,0,1-24.91,69.61c-1.29,2.91-2.67,5.78-3.94,8.7A2.68,2.68,0,0,1,291,855.9c-10.91,0-21.82,0-32.73,0-1.92,0-2-.09-2.66-2.1q-3.56-11.45-7.06-22.92-5.07-16.52-10.13-33l-16.94-55.19q-4.12-13.41-8.25-26.81c-.06-.19-.13-.39-.18-.58-.53-1.92-.37-2.21,1.56-2.21q14,0,28.06,0c1.77,0,1.9.11,2.5,2q3.49,11.16,6.92,22.33c5.92,19.09,11.78,38.2,17.78,57.27,3,9.46,4.69,19.21,7.1,28.8A7.34,7.34,0,0,0,277.59,825.54Z"/><path class="cls-2" d="M113.17,529.59c-2.34.25-4.37.28-6.38.44A113.7,113.7,0,0,0,81.93,535a133.8,133.8,0,0,0-15.61,5.8c-3.83,1.74-7.6,3.62-10.64,6.62-3.4,3.35-3.15,6.15.84,8.78a39.62,39.62,0,0,0,8.92,3.9,191.22,191.22,0,0,0,30.38,7.39c9.68,1.68,19.42,2.91,29.19,3.95,5.25.56,10.52.88,15.78,1.37,7.42.69,14.86,1,22.29,1.5,3,.21,6.09.22,9.13.4,5.68.32,11.37.35,17.06.51,14.22.41,28.45.55,42.68.3,7-.12,14.09-.19,21.13-.38,7.24-.19,14.49-.39,21.72-.81,8.45-.49,16.91-.75,25.34-1.46,4.86-.41,9.73-.56,14.59-1,6.88-.56,13.76-1.21,20.63-1.87,5.26-.51,10.5-1.1,15.75-1.67,8.15-.88,16.26-2,24.36-3.25a317.11,317.11,0,0,0,34.24-6.93,82,82,0,0,0,18.24-6.81,26,26,0,0,0,6.61-5c3.43-3.65,3.86-7.82,1.18-12.07-.46-.73-1-1.44-1.46-2.16.21-.13.35-.27.42-.24,3.57,1.57,6.85,3.55,9.22,6.75a7.87,7.87,0,0,1,.81,8.61,19.57,19.57,0,0,1-5.93,6.86,73.83,73.83,0,0,1-17.56,9.71,225.8,225.8,0,0,1-28.53,9.45c-14.28,3.82-28.76,6.73-43.33,9.15-10.22,1.7-20.48,3.15-30.78,4.28-7.33.81-14.67,1.64-22,2.31-6.13.56-12.29.9-18.43,1.36-7.7.57-15.41.87-23.12,1.26-15,.76-29.93.77-44.9.77-5.62,0-11.25,0-16.87-.1q-12.9-.3-25.79-.83c-7.1-.3-14.2-.72-21.29-1.2-6.21-.41-12.42-1-18.62-1.47-5.19-.43-10.39-.85-15.58-1.35-5.53-.53-11.05-1.09-16.56-1.74-7.26-.85-14.53-1.71-21.77-2.72-12.07-1.68-24.17-3.22-36.13-5.65a74.07,74.07,0,0,1-13.8-4.16,25.2,25.2,0,0,1-6.74-4.1,8.43,8.43,0,0,1-2.09-11,22,22,0,0,1,5.32-6.35A79.64,79.64,0,0,1,38,540.83,169.29,169.29,0,0,1,71.4,529.4c9.39-2.19,18.87-3.74,28.57-3.42a32.42,32.42,0,0,1,10.74,2A4.63,4.63,0,0,1,113.17,529.59Z"/><path class="cls-1" d="M383.1,126.83a3.79,3.79,0,0,1-1.84,1.46Q369,135.46,356.9,143c-15,9.35-29.57,19.16-43.25,30.32-8.36,6.82-16.29,14.11-22.88,22.72a57.79,57.79,0,0,0-8.09,13.82c-3.69,9.35-3.36,18.68.27,28a84.13,84.13,0,0,0,8,15.07c4.69,7.22,9.82,14.14,14.82,21.14a50.84,50.84,0,0,1,7.83,16c2.78,10,1.49,19.59-2.78,28.9a68.76,68.76,0,0,1-11.25,16.84c-9.21,10.42-20.2,18.6-32.1,25.64a4.84,4.84,0,0,1-2.39.94,10.23,10.23,0,0,1,2.14-2.4,60.27,60.27,0,0,0,12.53-17.64,40.29,40.29,0,0,0,4-16.89,37.77,37.77,0,0,0-4.6-18.14,62,62,0,0,0-8.12-11.4,130.33,130.33,0,0,1-17.54-25.6,77.3,77.3,0,0,1-8.58-27.6,61,61,0,0,1,4.89-30.76,81.35,81.35,0,0,1,13.6-21.1c9.11-10.48,19.89-18.94,31.51-26.42a249.19,249.19,0,0,1,25.7-14.4,347.36,347.36,0,0,1,34.08-14.35q12.71-4.61,25.73-8.28A9.29,9.29,0,0,1,383.1,126.83Z"/><path class="cls-2" d="M161.3,481.19c-1.16,1-2,1.67-2.82,2.31a11,11,0,0,0-2.44,2.71c-1.77,2.62-1.38,5.2,1.14,7.15a18.59,18.59,0,0,0,5.24,2.65,65.35,65.35,0,0,0,14.49,3.06c7.66.9,15.34,1.72,23,2.37,5.19.44,10.39.79,15.61,1,5.42.21,10.83.41,16.25.35,9-.11,18-.65,27-1.52,15.52-1.5,30.88-4.11,46.19-7a6.14,6.14,0,0,1,4.6.76,230.16,230.16,0,0,0,29.73,14.57c.66.27,1.78.32,1.82,1.06,0,1-1.14,1-1.83,1.24a265.43,265.43,0,0,1-59.15,16.65c-8.49,1.4-17,2.41-25.6,3.11a279.44,279.44,0,0,1-32.49.8c-17.23-.62-34.32-2.45-51.08-6.64a114.93,114.93,0,0,1-25-9,46.35,46.35,0,0,1-9.27-6.2,16.73,16.73,0,0,1-4.05-5.3c-1.84-3.75-1.09-7.86,2-11.28a29.73,29.73,0,0,1,8.45-6.26,87.45,87.45,0,0,1,17.23-6.63A5.93,5.93,0,0,1,161.3,481.19Z"/><path class="cls-2" d="M172,342.3a3.61,3.61,0,0,1-2.09.85c-10.77,2.74-21.47,5.75-32,9.31a176.67,176.67,0,0,0-17.22,6.75,49.35,49.35,0,0,0-7.76,4.42,12.48,12.48,0,0,0-3.46,3.4c-1.17,1.83-1,3.2.47,4.77a9.58,9.58,0,0,0,3,2,51,51,0,0,0,12.87,3.66,199.34,199.34,0,0,0,22,2.56c5.88.39,11.77.59,17.65.84,13.62.58,27.24.31,40.85.21,8.46-.06,16.93-.45,25.38-.8q11.36-.47,22.72-1.2c6.82-.43,13.63-1.05,20.46-1.48s13.91-1.08,20.84-1.79c8.82-.9,17.63-2,26.43-3q15.33-1.85,30.59-4.23c7-1.08,13.91-2.24,20.87-3.35.64-.1,1.28-.44,1.94-.05-.14.62-.68.66-1.09.84a185.27,185.27,0,0,0-25.21,13.57,7.74,7.74,0,0,1-2.42,1c-13.26,3.43-26.7,6-40.23,8.1q-13,2-26,3.47c-6.19.7-12.39,1.26-18.6,1.81-8.57.77-17.15,1.25-25.73,1.86-3.31.24-6.63.38-9.94.46-7.11.16-14.22.34-21.33.58-9.15.31-18.29.26-27.44.16q-13-.13-26-.81c-8.72-.45-17.43-1-26.13-1.85a323.09,323.09,0,0,1-35.19-4.95,93.92,93.92,0,0,1-17.92-5.26,29.48,29.48,0,0,1-5.13-2.87A10.47,10.47,0,0,1,65.62,380a5.59,5.59,0,0,1-.24-8.19,24.42,24.42,0,0,1,7.34-5.37,199.12,199.12,0,0,1,20.23-9,233.73,233.73,0,0,1,40.35-11.73,206.11,206.11,0,0,1,23.13-3.19c4.46-.35,8.92-.55,13.39-.65C170.53,341.82,171.31,341.65,172,342.3Z"/><path class="cls-2" d="M146,413.21c-.16.85-.82,1.17-1.28,1.63a29.37,29.37,0,0,0-4.51,5.22,14.29,14.29,0,0,0-1.5,3.32,6.41,6.41,0,0,0,2,7,15.66,15.66,0,0,0,5.21,3.09,56,56,0,0,0,14.07,3c6.8.71,13.6,1.42,20.42,1.93,5.47.42,10.94.74,16.42,1,10.22.54,20.44.88,30.67.65,7.78-.17,15.56-.49,23.33-1q10.34-.72,20.63-1.82c9.29-1,18.55-2.29,27.78-3.74q13-2,25.82-4.53a3.67,3.67,0,0,1,3.54.84,72.4,72.4,0,0,0,21.64,13.44c.66.27,1.47.33,1.88,1.05-.12.63-.67.64-1.09.76q-21.62,6.14-43.72,10.22-14,2.58-28.11,4.31c-5.84.72-11.7,1.31-17.57,1.85-6.81.62-13.64.94-20.46,1.48l-.61,0c-10.7.35-21.4.74-32.1.36-9.81-.34-19.61-.83-29.39-1.84a240.35,240.35,0,0,1-36-6.15,90,90,0,0,1-18.5-6.71,38.37,38.37,0,0,1-6.34-4,15.33,15.33,0,0,1-3.85-4.42A8.18,8.18,0,0,1,114,432a19.17,19.17,0,0,1,5.49-6.44A61.8,61.8,0,0,1,132.69,418c3.82-1.75,7.77-3.2,11.73-4.6A2.19,2.19,0,0,1,146,413.21Z"/><path class="cls-2" d="M472.67,563.95c.5.45.18,1,.09,1.48A28.69,28.69,0,0,1,465.15,580c-5.13,5.57-11.39,9.58-18,13a158,158,0,0,1-28.81,11,372.11,372.11,0,0,1-49.51,10.31c-8,1.17-16,2.23-24,3.06q-9.8,1-19.62,1.81c-6.82.55-13.64.92-20.46,1.46-2.7.21-5.41.2-8.12.39-4.39.32-8.8.33-13.2.52-11.17.49-22.35.47-33.53.46-9.69,0-19.37,0-29.06-.15-7.24-.12-14.49-.43-21.72-.81-8.38-.44-16.77-.92-25.13-1.61-17.09-1.4-34.12-3.27-50.91-6.86-7.83-1.68-15.58-3.63-22.91-6.95A10.74,10.74,0,0,1,97,603.87a3,3,0,0,1,2.2-.13c8.42,1.41,16.89,2.49,25.37,3.43,6.32.7,12.65,1.39,19,1.81s12.69,1,19,1.48c2.43.18,4.87.22,7.3.4,4.25.31,8.53.33,12.79.54,19.37.94,38.74.92,58.12.71,9-.09,18-.45,27-.82q10.76-.44,21.5-1.21c7.7-.56,15.39-1.15,23.08-1.86q14-1.29,27.87-3c19.64-2.48,39.15-5.7,58.46-10.05a324.33,324.33,0,0,0,37.94-10.68,128.86,128.86,0,0,0,25.4-11.79A35.94,35.94,0,0,0,472,564.3.67.67,0,0,1,472.67,563.95Z"/><path class="cls-2" d="M374.08,458.29c1-1.41,1.82-2.75,3.34-3.55,5.93-3.14,11.78-6.41,17.48-10a190.18,190.18,0,0,0,27.39-20.31,91.14,91.14,0,0,0,18.15-22c4-7,6.48-14.47,6.42-22.61a32.83,32.83,0,0,0-7.56-21c-7-8.55-16.08-13.22-27-14.65a40,40,0,0,0-14.49,1.2c-2.64.62-5.24,1.4-7.86,2.08-.5.13-1,.5-1.56.17-.19-.82.47-1.21.89-1.69a20.69,20.69,0,0,1,8.7-5.81,68.33,68.33,0,0,1,27.77-4c12.76.89,24.25,5.17,33.67,14a40.48,40.48,0,0,1,13.21,26.91c.8,9.84-1.91,18.77-6.77,27.16a74.66,74.66,0,0,1-16,18.78c-11.53,10-24.74,17.25-38.69,23.25A265.06,265.06,0,0,1,377,458,4.29,4.29,0,0,1,374.08,458.29Z"/><path class="cls-1" d="M469.06,713.09c1.15,0,2.3,0,3.45,0a1.05,1.05,0,0,1,1.17,1.11c0,.74-.43,1.08-1.1,1.22s-1.57-.16-2.07.56-.26,1.58-.28,2.38c0,1.69,0,3.38,0,5.07,0,.64-.15,1.21-.91,1.39a1.21,1.21,0,0,1-1.65-1.22c-.08-1.55,0-3.11-.05-4.67,0-.68,0-1.35,0-2a1.24,1.24,0,0,0-1.36-1.4,9.14,9.14,0,0,1-1-.09,1.08,1.08,0,0,1-1-1.25,1,1,0,0,1,1-1c1.28,0,2.57,0,3.85,0Z"/></g></g></svg>