<svg xmlns="http://www.w3.org/2000/svg" viewBox="0 0 485.09 474.09"><defs><style>.cls-1{fill:#b8d9ed;}.cls-2{fill:#0b3140;}</style></defs><title>lr</title><g id="Layer_2" data-name="Layer 2"><g id="Layer_1-2" data-name="Layer 1"><path class="cls-1" d="M242.55,474q-120.12,0-240.25,0c-1.87,0-2.3-.42-2.3-2.3Q.08,237,0,2.3C0,.42.42,0,2.3,0Q242.55.08,482.8,0c1.87,0,2.3.42,2.3,2.3q-.08,234.75,0,469.5c0,1.87-.42,2.3-2.3,2.3Q362.67,474,242.55,474Zm0-25.5q108.49,0,217,.06c2.47,0,3.11-.52,3.11-3.07q-.11-211,0-421.94c0-2.47-.51-3.11-3.07-3.11q-217,.11-433.94,0c-2.47,0-3.11.52-3.11,3.07q.11,211,0,421.94c0,2.48.53,3.11,3.07,3.11Q134,448.49,242.53,448.55Zm.14,20H7.67c-1.08,0-2.17,0-3.25,0-.4,0-.88,0-1.1.39s.17.92.49,1.28c1.1,1.27,2.61.91,4,.91h469a16.48,16.48,0,0,0,3.47-.23c.8-.17,1.67-.86,1.55-1.73s-1.21-.6-1.89-.64c-1.08-.08-2.17,0-3.25,0Z"/><path class="cls-2" d="M242.53,448.55q-108.49,0-217,.06c-2.54,0-3.08-.63-3.07-3.11q.1-211,0-421.94c0-2.55.64-3.07,3.11-3.07q217,.1,433.94,0c2.56,0,3.07.65,3.07,3.11q-.1,211,0,421.94c0,2.55-.64,3.07-3.11,3.07Q351,448.5,242.53,448.55Zm-110-232.05q0,53.37,0,106.74c0,3.12.53,3.78,3.24,3.78q54.37,0,108.74,0c2.16,0,3.17-.92,3.52-3,1.48-8.78,3-17.55,4.54-26.32.63-3.67.61-3.68-3.05-3.68-26,0-52,0-78,.07-2.64,0-3.05-.76-3-3.16.11-14.67.06-29.33.06-44q0-68.25,0-136.49c0-3.92,0-3.93-3.8-3.93h-28c-4.12,0-4.22.1-4.22,4.2Q132.54,163.62,132.55,216.5Zm151,37.08h0q0,34.75,0,69.49c0,4,0,4,3.85,4h28c4.16,0,4.16,0,4.17-4.18q0-59.74,0-119.49c0-5.25,0-5.27,5.1-6.35a134.46,134.46,0,0,1,32.3-2.45c2.21.07,3.15-.52,3.12-2.92q-.16-13.62,0-27.25c0-2.2-.75-2.89-2.91-2.88a188.35,188.35,0,0,0-23.42,1.56,213.1,213.1,0,0,0-48.35,11.81c-2.27.86-3.09,2.09-2.83,4.48a153.94,153.94,0,0,1,.95,16.71Q283.55,224.82,283.52,253.57Z"/><path class="cls-1" d="M242.67,468.51h234c1.08,0,2.17,0,3.25,0,.68,0,1.76-.34,1.89.64s-.75,1.56-1.55,1.73a16.48,16.48,0,0,1-3.47.23H7.8c-1.38,0-2.88.36-4-.91-.32-.37-.78-.72-.49-1.28s.7-.38,1.1-.39c1.08,0,2.17,0,3.25,0Z"/><path class="cls-1" d="M132.54,216.5q0-52.87,0-105.74c0-4.09.11-4.2,4.22-4.2h28c3.8,0,3.8,0,3.8,3.93q0,68.25,0,136.49c0,14.67.06,29.33-.06,44,0,2.39.4,3.17,3,3.16,26-.12,52-.07,78-.07,3.67,0,3.69,0,3.05,3.68-1.51,8.78-3.06,17.54-4.54,26.32-.35,2.07-1.37,3-3.52,3q-54.37,0-108.74,0c-2.71,0-3.24-.66-3.24-3.78Q132.54,269.87,132.54,216.5Z"/><path class="cls-1" d="M283.52,253.57q0-28.75,0-57.49a153.94,153.94,0,0,0-.95-16.71c-.26-2.39.56-3.62,2.83-4.48a213.1,213.1,0,0,1,48.35-11.81,188.35,188.35,0,0,1,23.42-1.56c2.16,0,2.93.68,2.91,2.88q-.14,13.62,0,27.25c0,2.4-.91,3-3.12,2.92a134.46,134.46,0,0,0-32.3,2.45c-5.1,1.08-5.1,1.11-5.1,6.35q0,59.74,0,119.49c0,4.18,0,4.18-4.17,4.18h-28c-3.84,0-3.85,0-3.85-4q0-34.75,0-69.49Z"/></g></g></svg>