<svg xmlns="http://www.w3.org/2000/svg" viewBox="0 0 467.09 480.09"><defs><style>.cls-1{fill:#fefefe;}.cls-2{fill:#e45735;}.cls-3{fill:#dc4b28;}.cls-4{fill:#d44726;}.cls-5{fill:#e24e2b;}.cls-6{fill:#f3f1f1;}.cls-7{fill:#e4e2e1;}.cls-8{fill:#c03817;}.cls-9{fill:#eb6343;}.cls-10{fill:#ea5d3b;}.cls-11{fill:#e05230;}.cls-12{fill:#fee0d5;}.cls-13{fill:#cfcbca;}.cls-14{fill:#b5b5b5;}.cls-15{fill:#dc755c;}.cls-16{fill:#404040;}</style></defs><title>pp</title><g id="Layer_2" data-name="Layer 2"><g id="Layer_1-2" data-name="Layer 1"><g id="MfHkL4.tif"><path class="cls-1" d="M467,240q0,118.88,0,237.75c0,1.87-.42,2.3-2.3,2.3q-231.25-.08-462.5,0c-1.87,0-2.3-.42-2.3-2.3Q.08,240,0,2.3C0,.42.42,0,2.3,0Q233.55.08,464.8,0c1.87,0,2.3.42,2.3,2.3Q467,121.17,467,240ZM4.05,51h0c-2,1.64-2.36,3.25-1,4.5v4c-1.84.59-1,2.13-1,3.19Q2,226.55,2,390.36c0,.67,0,1.33,0,2a1,1,0,0,0,1,1.19v3c-.9.08-1.1.71-1,1.42a11.32,11.32,0,0,0,2.3,5.69c2.1,2.39,5,3.29,7.81,4.18C24.13,411.57,36.12,415.2,48,419c6.71,2.15,13.38,4.42,20,6.91,11.88,4.49,23.86,8.68,35.81,13,17.18,6.19,34.3,12.57,51.58,18.46,12.15,4.14,24.35,8.19,36.9,11a210.86,210.86,0,0,0,23.18,4.21c5.18.58,10.38,1,15.55,1.59,7.62.9,15.15,1.17,22.69-.65,9.43-2.27,15.39-7.67,17.49-17.47a182,182,0,0,0,3.27-24.81c.61-8.27.77-16.57,1-24.87.12-3.54.64-4.52,3.9-5.75a16.84,16.84,0,0,1,6.07-1.15q72.37.07,144.73,0a140.8,140.8,0,0,0,16.62-1,18.55,18.55,0,0,0,15.72-14A62.47,62.47,0,0,0,464,369.45q.15-139.61.07-279.22A101.42,101.42,0,0,0,463,74.62c-1-6.34-4.19-11.22-10.13-14.2-5.42-2.72-11.3-2.76-17-2.78Q361,57.4,286.1,57.57A15.86,15.86,0,0,1,278.87,56c-1.73-.86-3.1-2-3.41-4.2A39.41,39.41,0,0,0,273,41.23c-.88-2-1.55-4.24-3.88-5.19,0-1.16-.07-2.33-.07-3.49,0-8.4,0-16.81,0-25.21,0-3.36-1.52-5.79-3.9-5.77-2.09,0-4-.7-6.09-.67a2.78,2.78,0,0,0-2-.24,17.72,17.72,0,0,0-2,.18Q239.55,4,224,6.89c-10.43,1.94-20.84,4-31.31,5.8-7.45,1.26-14.84,2.86-22.26,4.3L152,20.59c-1.23.57-2.57.3-3.85.55L122.94,26,99.54,30.6,83.2,33.71,68.55,36.54l-1,.11-1,.27L65,37.14a1.88,1.88,0,0,0-1.5.37c-.79-.21-1.4.42-2.11.49-6.33.65-12.48,2.22-18.72,3.37-7.5,1.37-15,2.71-22.48,4.22-3.75.76-7.6,1.15-11.21,2.54-.91-.42-1.64.08-2.39.47C4.89,48.46,4,49.3,4.05,51Z"/><path class="cls-2" d="M152,20.59,170.43,17c7.42-1.45,14.81-3,22.26-4.3,10.47-1.77,20.88-3.86,31.31-5.8s20.73-4,31.08-6.05a17.73,17.73,0,0,1,2-.18L257.55,2c-2.44.82-5,.62-7.52,1.1C234.92,6,219.85,9.08,204.86,12.54c-9.34,2.15-18.74,4.1-27.89,7-3.06,1-5.63,2.09-6.94,6-2.94,8.84-6.17,17.58-8.34,26.66-1.1,4.59-2.61,9.08-3.61,13.69-1.91,8.8-3.51,17.66-5,26.56-.61,3.75-1,7.56-1.36,11.3-.44,5.1-1.44,10.15-1.35,15.34.07,4.07-.66,8.15-.7,12.3,0,3.42,1.08,4.81,3.69,6.07,5,2.43,10.43,4.18,14.92,7.69,5.35,4.18,10.09,8.91,13.47,14.85,7.79,13.72,9.53,28.62,8.25,44-.79,9.45-2.73,18.7-7.12,27.21a105.74,105.74,0,0,1-8.72,14.39c-.92,1.25-2.3,2.72-1.85,4.2,1.82,5.9,3.34,12,7,17.1a61.63,61.63,0,0,1,4.94,8.05c2.12,4.19,3,8.93,5.83,12.84,1.11,1.53,2.13,2.62,4.11,2.75a3.43,3.43,0,0,1,2.69,1.13c.77,1.09,1.77,1.16,3,1.38,2.41.46,5.13.76,6.63,3,2.14,3.15,4.86,5.8,7.1,8.83,2,2.73,4.71,3.13,7.52,2.52,3-.65,5.38.56,7.59,2.07a102.76,102.76,0,0,0,9.92,6.18c2.29,1.22,4.53,2.86,7.33,2.84a12.45,12.45,0,0,1,3.62.69c3.09.9,6.19,1.89,9.48,1.83v76.49c-1.78-.64-3.69.29-5.34-.15-3.6-1-7.47-.19-11-2.08-1.23-.66-2.65-1.63-4.06-1.67-4.3-.11-7.6-2.57-11.21-4.33s-7.28-4.2-11.57-4.21a9,9,0,0,1-7.39-3.48,16.3,16.3,0,0,0-6.74-4.85,11.35,11.35,0,0,1-3.13-2.37,68.76,68.76,0,0,1-6.05-6.78c-4.18-5-10.16-6.39-15.52-9-2.7-1.32-4.87-2.76-6.15-5.57-1.4-3.08-2.66-6.65-5.53-8.4A28.29,28.29,0,0,1,155.5,334c-2-3.52-2.83-7.64-6-10.61-3.7-3.48-5.34-8.21-7.18-12.85a24.17,24.17,0,0,0-3.43-6.76c-1.47-1.81-3.45-2.94-4.85-4.81-3.13-4.19-6.81-8.31-7.29-13.54-.65-7-1.78-14-1.73-21,0-3.4,1.38-4.91,4.85-5.31,2.62-.3,5.38-.15,7.86-.93,7.55-2.37,15.29-4.11,22.14-8.6a61.12,61.12,0,0,0,17-16.15,55.24,55.24,0,0,0,8.86-22.45,84.85,84.85,0,0,0-.71-34.28c-3.79-16.46-13.26-28-29.44-33.5-9.44-3.2-19.28-3.53-29.15-3.06-.29,0-.56.3-.85.45-9.36.08-18.71-.14-28.05-.47a25.76,25.76,0,0,1-7.05-1.17c-2.11-.67-2.42-1.66-2.43-3.54,0-5.32.45-10.63.44-15.94,0-4-.21-8.06,0-12.13.31-6.63.57-13.25,1-19.87.44-6.26.71-12.45,1.72-18.72.88-5.46,2.15-11.07,1.87-16.74A2.69,2.69,0,0,1,93.39,50c2.79-3.53,1.56-8.07,3-12,.77-2.19,1.26-3.77,3.55-4.35,1.28-.33,2.58-.61,3.86-.94,15.31-4,30.71-7.5,46.18-10.76C150.71,21.79,151.86,21.85,152,20.59Z"/><path class="cls-3" d="M66.5,36.92l1-.27c.14.23.27.65.44.67.51.06.49-.42.56-.77L83.2,33.71,99.54,30.6c-.45,1.44-1.77,1.64-2.94,1.92-7.73,1.81-15.46,3.65-23.22,5.32-6.72,1.44-13.12,4-19.86,5.35-1.77.35-2.55,1.72-3.11,3.69-1,3.34-.82,6.72-1.15,10.06-.36,3.51-2.6,6.7-1.7,10.36.73,3,.3,5.9.07,8.88-.15,2.05-1.77,3.44-1.65,5.63.93,16.27-1.7,32.67,1.59,48.86a22.32,22.32,0,0,1,0,7.88c-.42,2.81.83,5.46,1.27,8.16,1.24,7.59,1.08,15.38,3.61,22.81,1.17,3.43,1,7.21,1.34,10.75.56,6.58.51,13.22,1.16,19.83a133.36,133.36,0,0,0,2.69,17.11c1.27,5.48,4,10.5,5.35,15.93.77,3.19,3.58,5.58,3.22,9.11,0,.24.4.51.56.8,1.12,2,3.8,3.48,2.45,6.5-.11.24.43.85.76,1.19a11.34,11.34,0,0,1,3.06,6.65A7.77,7.77,0,0,0,75.23,262c.86.86,1.86,1.85,1.77,3.17a8.09,8.09,0,0,0,1.45,4.9c.4.65.54,1.49,1.5,1.32s1.09-1.1,1.09-2c0-5.15.75-10.25.92-15.37.24-7.13.59-14.24,1-21.37.61-11.62.53-23.28.6-34.92.08-13,0-26,0-39a38.49,38.49,0,0,1,1.07-7.61c.18-.93.55-1.79,1.77-1.68l.21,24c0,.58-.11,1.16-.11,1.74q0,64.71.06,129.42a.49.49,0,0,1,.09.31c-.93.68-.21,1.16.25,1.57a15,15,0,0,0,10.14,4q6.85,0,13.66-.51c4.27-.36,6.48-2.06,7.85-6,1.16-3.39.75-6.79.63-10.28-.28-8.23-.06-16.47-.11-24.7,0-2.23-.47-4.45-.44-6.67.07-5.4,2.15-8,7.29-9.12a31.42,31.42,0,0,1,5.21-.2c.78,0,1.75.27,2-1a50.92,50.92,0,0,0,14.5-2c.78.74.89.13,1-.49a35.23,35.23,0,0,0,10.55-4.72,53.89,53.89,0,0,0,19-20.62c4.28-8.06,5.73-16.77,6.47-25.69,1.52.34,1,1.58,1,2.45-.34,13.06-4.14,24.9-12.39,35.21-7,8.73-16,14.36-26.57,17.58a77.1,77.1,0,0,1-19.28,3.3c-3,.13-4.71,2-4.72,5,0,3.15.41,6.32.39,9.43-.08,9.49.81,18.95.65,28.44,0,2.28.84,4.55-.05,6.87-.69,1.8-1.9,3.34-2.61,5.09-.91,2.25-2.21,3.65-4.75,3.62a1.34,1.34,0,0,0-1.52,1c-.16.68.27,1.05.77,1.42,2.52,1.85,3.94,4.71,6.16,6.91a26.21,26.21,0,0,1,7.2,11.46c1.17,4.13,2.86,8.52,5.88,12.07,2,2.34,3.73,5.33,6.35,6.47,4.84,2.11,5.5,6.78,7.85,10.42.33.5.2,1.3-.76.91a10.44,10.44,0,0,1-2.82-1.51c-.71-.6-1.32-1.61-2.25-1-1.11.79-.24,1.85.22,2.66,3.86,6.79,6.85,14,10.45,20.93a6.42,6.42,0,0,0,1.44,2c2.68,2.22,4.36,5.3,6.15,8.09a92.87,92.87,0,0,0,9,12.44A14.68,14.68,0,0,0,180.49,415c5,.26,9.08,2.59,12.64,5.65,1.95,1.68,4,3.06,6.06,4.56s4.52,2.09,6.45,3.68c4.37,3.58,9,6,15,5.76,5.87-.23,11.81-.72,17.66,1.61,1.93.77,4,2.23,6.09,2.14,4.95-.21,9.69,1.61,14.62,1.14-.19,2,.46,4.06-.5,6a42.07,42.07,0,0,1-9.91-.71c-10.59-2.26-21.31-3.88-31.89-6.24-13-2.89-26.1-5.3-39.12-8.07-8.17-1.74-16.26-3.82-24.41-5.64a12.45,12.45,0,0,1-8.73-6.24,23.17,23.17,0,0,0-5.3-6.53c-3.52-2.85-5.81-6.61-8.66-9.95-2.69-3.15-4.57-7.25-9.1-8.47a2.49,2.49,0,0,1-1.19-.86,37.17,37.17,0,0,0-6.7-6.89,12.27,12.27,0,0,1-3.55-3.71c-1.62-3.07-4.16-5.63-5.07-9.09a1.37,1.37,0,0,0-.86-.8c-1.94-.46-2.66-2.09-3.5-3.59-.25-.44-.41-1-.89-1.12-3.6-.8-4.46-4.64-7.28-6.55-2.66-1.81-4.52-5.2-6.67-7.93-2.73-3.48-4.89-7.29-7.9-10.71a119.3,119.3,0,0,1-14.29-20.88c-.44-.79-1-1.5-1.56-2.25-1.86-2.69-4.56-5.15-5.36-8.12-1.12-4.12-3.66-7.16-5.7-10.61-.91-1.53-2.24-2.95-1.89-5a1.74,1.74,0,0,0-.72-1.53,16.2,16.2,0,0,1-3-4.56c-2.6-5-4.51-10.22-7-15.23a67.38,67.38,0,0,1-4.2-10.82c-1.18-3.91-4.32-7.15-4.24-11.6,0-.38-.57-.78-.9-1.15s-.95-.85-.85-1.46c.45-2.93-1.68-5.13-2.39-7.72-.51-1.84-.65-3.76-1.23-5.56-1-3.17-3.13-6-3-9.54a5.54,5.54,0,0,0-.86-3.08c-1.39-2.1-1.6-4.48-2.1-6.82-.85-4-1.23-8.29-2.66-12-1.55-4-1.9-8.28-3-12.35-1.35-4.8-1.13-10.08-1.22-15.17-.16-9.41,0-18.83,0-28.24q0-47.24,0-94.48c0-1.7,0-3.31,2.15-3.48s4.09-1.22,6.13-1.82c9-2.65,18-4.86,27.14-6.9C51.7,41,56.5,40.06,61.26,39c.87-.2,2.11-.1,2.29-1.49a1.88,1.88,0,0,1,1.5-.37c.09.41.19.83.72.82S66.49,37.43,66.5,36.92Z"/><path class="cls-4" d="M63.55,37.5c-.18,1.38-1.42,1.29-2.29,1.49C56.5,40.06,51.7,41,46.94,42c-9.11,2-18.18,4.26-27.14,6.9-2,.6-3.93,1.65-6.13,1.82s-2.16,1.78-2.15,3.48q0,47.24,0,94.48c0,9.41-.11,18.83,0,28.24.09,5.08-.13,10.37,1.22,15.17,1.14,4.07,1.5,8.3,3,12.35,1.42,3.73,1.81,8,2.66,12,.49,2.34.7,4.72,2.1,6.82a5.54,5.54,0,0,1,.86,3.08c-.13,3.57,2,6.37,3,9.54.58,1.8.73,3.72,1.23,5.56.71,2.6,2.84,4.79,2.39,7.72-.09.62.47,1,.85,1.46s.91.77.9,1.15c-.08,4.45,3.07,7.68,4.24,11.6a67.38,67.38,0,0,0,4.2,10.82c2.52,5,4.42,10.28,7,15.23a16.2,16.2,0,0,0,3,4.56A1.74,1.74,0,0,1,49,295.6c-.35,2,1,3.46,1.89,5,2,3.45,4.58,6.48,5.7,10.61.81,3,3.51,5.43,5.36,8.12.52.75,1.11,1.46,1.56,2.25a119.3,119.3,0,0,0,14.29,20.88c3,3.42,5.17,7.23,7.9,10.71,2.15,2.73,4,6.12,6.67,7.93,2.82,1.91,3.68,5.75,7.28,6.55.49.11.65.68.89,1.12.84,1.49,1.56,3.13,3.5,3.59a1.37,1.37,0,0,1,.86.8c.91,3.46,3.45,6,5.07,9.09a12.27,12.27,0,0,0,3.55,3.71,37.17,37.17,0,0,1,6.7,6.89,2.49,2.49,0,0,0,1.19.86c4.53,1.21,6.41,5.32,9.1,8.47,2.85,3.34,5.14,7.1,8.66,9.95a23.17,23.17,0,0,1,5.3,6.53,12.45,12.45,0,0,0,8.73,6.24c8.15,1.82,16.24,3.9,24.41,5.64,13,2.77,26.12,5.18,39.12,8.07,10.58,2.36,21.3,4,31.89,6.24a42.07,42.07,0,0,0,9.91.71v.5a5.09,5.09,0,0,0-1.51,2.37l-9.5-1.36a3.19,3.19,0,0,0-.84-.45c-8.43-1.55-16.88-3-25.3-4.64-12-2.27-24-4.61-36.07-6.93-11.75-2.27-23.48-4.57-35.24-6.8-5.83-1.1-11.69-2.07-17.53-3.09a10.92,10.92,0,0,0-1.63-.57c-5.67-1-11.36-2-17-3.1-13.31-2.57-26.6-5.22-39.92-7.78-11.81-2.27-23.66-4.37-35.46-6.7-7.32-1.44-14.71-2.5-21.94-4.36-.2-1.56-1.13-.65-1.82-.54a1.24,1.24,0,0,1-1.2,0c-.07-.42-.16-.81-.63-1C9.88,400,9.06,397.65,9,394.64c-.09-6,.12-11.95-.37-17.94C8,369.17,8.49,361.59,8.17,354c-.67-16,0-32.11-.49-48.18-.54-19-.12-38.07-.13-57.11,0-4.73-.38-9.47-.41-14.18C7,204.67,7,174.81,7,144.94Q7,104.82,7,64.7A25.2,25.2,0,0,0,7,60,16,16,0,0,1,9,48.12c3.61-1.39,7.46-1.78,11.21-2.54,7.47-1.51,15-2.84,22.48-4.22C49,40.22,55.11,38.64,61.44,38,62.15,37.92,62.75,37.29,63.55,37.5Z"/><path class="cls-5" d="M86.37,149.55c-1.22-.11-1.59.75-1.77,1.68a38.49,38.49,0,0,0-1.07,7.61c0,13,.08,26,0,39-.08,11.64,0,23.3-.6,34.92-.37,7.12-.73,14.24-1,21.37-.17,5.12-.94,10.22-.92,15.37,0,.85,0,1.77-1.09,2s-1.11-.67-1.5-1.32a8.09,8.09,0,0,1-1.45-4.9c.09-1.32-.91-2.31-1.77-3.17a7.77,7.77,0,0,1-2.17-4.65A11.34,11.34,0,0,0,70,250.73c-.33-.34-.87-1-.76-1.19,1.34-3-1.34-4.46-2.45-6.5-.16-.29-.58-.56-.56-.8.37-3.53-2.45-5.92-3.22-9.11-1.31-5.44-4.08-10.45-5.35-15.93A133.36,133.36,0,0,1,55,200.09c-.65-6.61-.61-13.25-1.16-19.83-.3-3.54-.17-7.32-1.34-10.75-2.53-7.43-2.37-15.22-3.61-22.81-.44-2.7-1.69-5.35-1.27-8.16a22.32,22.32,0,0,0,0-7.88c-3.3-16.2-.66-32.59-1.59-48.86-.13-2.2,1.49-3.58,1.65-5.63.22-3,.66-5.91-.07-8.88-.9-3.67,1.34-6.85,1.7-10.36.34-3.34.2-6.72,1.15-10.06.56-2,1.35-3.34,3.11-3.69,6.74-1.34,13.14-3.91,19.86-5.35,7.76-1.66,15.49-3.51,23.22-5.32,1.17-.27,2.49-.48,2.94-1.92L122.94,26l25.26-4.88c1.28-.25,2.62,0,3.85-.55-.18,1.25-1.33,1.2-2.12,1.37-15.47,3.25-30.87,6.81-46.18,10.76-1.28.33-2.57.62-3.86.94-2.29.58-2.78,2.16-3.55,4.35-1.39,4-.16,8.5-3,12A2.69,2.69,0,0,0,93.06,52c.28,5.67-1,11.29-1.87,16.74-1,6.26-1.28,12.46-1.72,18.72-.47,6.62-.73,13.25-1,19.87-.19,4.07,0,8.09,0,12.13,0,5.3-.46,10.61-.44,15.94,0,1.88.32,2.87,2.43,3.54a25.76,25.76,0,0,0,7.05,1.17c9.35.33,18.7.55,28.05.47.36.16.73.5,1.08.47,2.89-.26,5.71.55,8.59.54.81,0,1.74-.16,1.82,1.08-5.05.31-10.11.59-15.16.92q-15.16,1-30.32,2C86.67,145.41,86.67,145.41,86.37,149.55Z"/><path class="cls-6" d="M269.14,36c2.33,1,3,3.17,3.88,5.19a39.41,39.41,0,0,1,2.45,10.62c.3,2.22,1.67,3.34,3.41,4.2a15.86,15.86,0,0,0,7.23,1.53q74.87-.05,149.73.06c5.72,0,11.6.06,17,2.78,5.94,3,9.14,7.86,10.13,14.2A101.42,101.42,0,0,1,464,90.23q0,139.61-.07,279.22a62.47,62.47,0,0,1-1.41,15.05,18.55,18.55,0,0,1-15.72,14,140.8,140.8,0,0,1-16.62,1q-72.37,0-144.73,0a16.84,16.84,0,0,0-6.07,1.15c-3.25,1.23-3.78,2.21-3.9,5.75-.27,8.29-.44,16.6-1,24.87a182,182,0,0,1-3.27,24.81c-2.1,9.8-8.06,15.19-17.49,17.47-7.54,1.82-15.06,1.55-22.69.65-5.17-.61-10.37-1-15.55-1.59a210.86,210.86,0,0,1-23.18-4.21c-12.55-2.84-24.75-6.89-36.9-11-17.28-5.89-34.4-12.27-51.58-18.46-11.95-4.3-23.93-8.5-35.81-13-6.6-2.5-13.27-4.77-20-6.91-11.92-3.81-23.91-7.44-35.86-11.17-2.86-.89-5.71-1.8-7.81-4.18A11.32,11.32,0,0,1,2.08,398c-.14-.71.06-1.35,1-1.42.47,4.22,2.12,7.66,6.42,9.17,2.5.87,5.05,1.57,7.59,2.33,7.06,2.12,14.15,4.18,21.18,6.38,6.24,2,12.39,4.21,18.67,6.06,5.65,1.66,11.13,3.79,16.73,5.6,6.15,2,12.18,4.47,18.44,5.92,7.23,1.68,14.32,3.75,21.34,6.09,7.7,2.57,15.45,5,23.29,7,9.83,2.62,19.67,5.21,29.54,7.69,5.45,1.37,11,2.5,16.46,3.69s11,2.06,16.59,2.88c5.31.79,10.57,2,15.9,2.57,7.4.75,14.72,2.11,22.11,2.86,3.82.39,7.86,1.25,11.45-.71,6.1-3.34,9.1-8.93,10.3-15.61a.58.58,0,0,0,0-.3c1.65-.16,3.31-.27,4.95-.49,3.43-.46,4.86-2.05,5-5.55,0-.83,0-1.66,0-2.49q0-20.81.08-41.61c6.3-3,13-3.55,19.88-3.54q73,.07,146,0a42.8,42.8,0,0,0,8.44-.49c6.17-1.23,11.43-3.79,13.79-10a29.61,29.61,0,0,0,1.84-10.47q0-141,0-281.92c0-6.91-.3-13.73-2.11-20.42-.77-2.86-1.9-5.48-4.95-6.66l-.51-.49a1.12,1.12,0,0,0-.81-1.14c-3-1-6.07-1.42-9.18-.38h-1c-.5-1.74-1.94-1-2.94-1q-73-.06-146.07-.06c-7.51,0-15.14,1-22.4-2Q269.14,47.79,269.14,36Z"/><path class="cls-7" d="M259,448.51c-1.19,6.68-4.19,12.26-10.3,15.61-3.59,2-7.63,1.1-11.45.71-7.39-.75-14.7-2.11-22.11-2.86-5.33-.54-10.59-1.78-15.9-2.57-5.56-.82-11.1-1.7-16.59-2.88s-11-2.32-16.46-3.69c-9.87-2.48-19.71-5.07-29.54-7.69-7.84-2.09-15.59-4.47-23.29-7-7-2.34-14.11-4.41-21.34-6.09-6.27-1.46-12.3-3.94-18.44-5.92-5.59-1.81-11.08-3.94-16.73-5.6-6.27-1.85-12.42-4.11-18.67-6.06-7-2.2-14.12-4.26-21.18-6.38-2.53-.76-5.09-1.46-7.59-2.33-4.3-1.5-5.95-4.94-6.42-9.17q0-1.5,0-3,0-167,0-334v-4l1-4.5h0l1.44-.51L5,53c-.06,0-.17.11-.16.14a2.05,2.05,0,0,0,.15.36c0,.58.05,1.16.05,1.75Q5,223.53,5,391.78c0,1.92.06,3.83.09,5.75-.78,2.65,1.08,5.69,4.52,6.76,9.13,2.83,18.31,5.5,27.46,8.24l1,0a2.79,2.79,0,0,0,1.69,1c13.47,4,27,8.07,40.41,12.17,5.29,1.61,10.56,3.26,15.92,4.63,5.77,1.48,11.44,3.36,17.26,4.63,11.71,2.56,23.38,5.33,35.26,7,7,1,14,2.79,21,3.42,9.23.82,18.43,2,27.57,3.32,9.8,1.44,19.63,1.58,29.45,2.25,5.06.34,10.16,0,15.24.08,2.9,0,4.57-1.54,5.67-4l9.5,1.36Z"/><path class="cls-4" d="M269.14,36q0,11.75,0,23.49V62c0,.5-.06,1-.06,1.49q-.06,18.52-.1,37c-1.48.4-.87,1.62-.9,2.5-.32,10,.12,20.09-.4,30.16-.55,10.68-.65,21.39-1.08,32.08-.6,14.85.63,29.72-.92,44.59-.87,8.32,0,16.76-.51,25.15-.47,7.6-.88,15.24-1,22.84-.07,7.4-1.16,14.71-1.24,22.1,0,2.39-.27,5-1.85,7.1l-.09-3.55q0-4.12,0-8.25,0-49.11.06-98.21c1.24-.31,1.44-1.31,1.42-2.33-.15-10,1.2-19.86,1.43-29.78.4-17.46-.2-34.93.56-52.39.13-3-1-6-.4-8.92a44.14,44.14,0,0,0,.41-8.44c0-9.89.11-19.78-.43-29.66-.22-4,.86-7.94.42-11.92A138.06,138.06,0,0,1,264,18.71c0-3.5,0-7,0-10.49,0-2.52-1-4.15-3.49-4.69l-1-1.49L259,.9c2.05,0,4,.68,6.09.67,2.38,0,3.89,2.41,3.9,5.77,0,8.4,0,16.81,0,25.21C269.07,33.71,269.11,34.87,269.14,36Z"/><path class="cls-8" d="M5,53l.52-2.51,1.16-1.95c.75-.39,1.48-.89,2.39-.47A16,16,0,0,0,7,60,25.2,25.2,0,0,1,7,64.7q0,40.12,0,80.24c0,29.87-.09,59.74.09,89.61,0,4.71.4,9.45.41,14.18,0,19-.41,38.09.13,57.11.46,16.07-.17,32.14.49,48.18.31,7.57-.15,15.15.47,22.68.5,6,.28,12,.37,17.94,0,3,.86,5.38,3.92,6.47.47.17.57.56.63,1A28.67,28.67,0,0,0,8,401.55H8l-.51-.42c-2-.42-1.56-2.45-2.45-3.61,0-1.92-.09-3.83-.09-5.75Q5,223.53,5,55.29c0-.58,0-1.16-.05-1.75Z"/><path class="cls-6" d="M3,59.54q0,167,0,334a1,1,0,0,1-1-1.19c0-.67,0-1.33,0-2q0-163.81,0-327.62C2.09,61.68,1.2,60.14,3,59.54Z"/><path class="cls-6" d="M4.05,51.05l-1,4.5C1.7,54.31,2.06,52.69,4.05,51.05Z"/><path class="cls-9" d="M259,.9,259.56,2l-1,1-1-1L257,.66A2.78,2.78,0,0,1,259,.9Z"/><path class="cls-6" d="M6.65,48.59,5.49,50.54,4.05,51C4,49.3,4.89,48.46,6.65,48.59Z"/><path class="cls-4" d="M66.5,36.92c0,.51,0,1-.73,1s-.64-.41-.72-.82Z"/><path class="cls-4" d="M68.55,36.54c-.06.35,0,.83-.56.77-.17,0-.29-.43-.44-.67Z"/><path class="cls-9" d="M261,283.53q0,1.77.09,3.55c0,1.08,0,2.16,0,3.25q0,75.07-.08,150.13c0,1,.42,2.17-.45,3.1-.86-.83-.48-1.89-.48-2.84,0-13.32,0-26.65-.05-40,0-.93.67-2.28-1-2.69q0-.25,0-.5,0-38.25,0-76.49,0-24.62,0-49.24c0-1.76.11-3.25-2.44-2.34-.79.28-1.58-.39-2.26-.88a5.34,5.34,0,0,0-2.48-1.06c-3.75-.49-6.91-2.45-9.7-4.73-4.06-3.32-8.49-6.12-11.89-10.4-2.84-3.58-5.34-7.43-8.4-10.86-2.27-2.55-3.15-6-4.63-9.08s-3.36-5.55-7.35-4.95c-.91.14-1.48-.31-1.89-1.24-2-4.54-3.29-9.35-5-14-1.6-4.37-2.21-9-3.54-13.44-1.41-4.68-1.79-9.55-2.77-14.3-.67-3.24-.9-6.71-1.43-10-1-6.24-1-12.53-1.62-18.78-1.07-10.11.56-20.24,1.06-30.34.15-2.94-.13-6.1.84-9,1.08-3.2,1.33-6.56,1.81-9.8a140.34,140.34,0,0,1,3.29-15.44A149.66,149.66,0,0,1,207,71.73c1.93-4.61,3.44-9.41,5.7-13.88,1.68-3.33,3.14-7.05,5.48-9.69s3.58-6.13,6.22-8.75a84.31,84.31,0,0,0,7.43-8.55c2.16-2.82,5.48-4.21,8.34-6.17,5.76-3.93,11.72-7.3,18.92-7.66,0,31.81-.24,63.62.07,95.43s-.69,63.6.71,95.42c1.07,24.27.21,48.62.25,72.94C260.08,281.75,259.38,283.11,261,283.53Z"/><path class="cls-10" d="M259,17c-7.2.35-13.16,3.73-18.92,7.66-2.86,2-6.18,3.35-8.34,6.17a84.31,84.31,0,0,1-7.43,8.55c-2.63,2.62-3.8,6-6.22,8.75s-3.8,6.36-5.48,9.69c-2.26,4.47-3.77,9.27-5.7,13.88a149.66,149.66,0,0,0-6.31,19.49,140.34,140.34,0,0,0-3.29,15.44c-.48,3.24-.72,6.6-1.81,9.8-1,2.86-.69,6-.84,9-.5,10.11-2.13,20.24-1.06,30.34.66,6.25.62,12.53,1.62,18.78.53,3.29.76,6.76,1.43,10,1,4.75,1.36,9.62,2.77,14.3,1.34,4.43,1.94,9.07,3.54,13.44,1.71,4.65,3,9.46,5,14,.41.92,1,1.37,1.89,1.24,4-.6,5.87,1.85,7.35,4.95s2.35,6.53,4.63,9.08c3.06,3.43,5.56,7.28,8.4,10.86,3.4,4.27,7.83,7.08,11.89,10.4,2.79,2.28,6,4.23,9.7,4.73a5.34,5.34,0,0,1,2.48,1.06c.68.49,1.46,1.16,2.26.88,2.55-.92,2.44.58,2.44,2.34q-.05,24.62,0,49.24c-3.29.07-6.39-.93-9.48-1.83a12.45,12.45,0,0,0-3.62-.69c-2.8,0-5-1.62-7.33-2.84a102.76,102.76,0,0,1-9.92-6.18c-2.21-1.51-4.56-2.72-7.59-2.07-2.81.6-5.51.2-7.52-2.52-2.24-3-5-5.68-7.1-8.83-1.5-2.21-4.22-2.51-6.63-3-1.18-.23-2.19-.29-3-1.38a3.43,3.43,0,0,0-2.69-1.13c-2-.13-3-1.22-4.11-2.75-2.84-3.91-3.71-8.65-5.83-12.84a61.63,61.63,0,0,0-4.94-8.05c-3.67-5.12-5.19-11.2-7-17.1-.46-1.48.93-2.95,1.85-4.2a105.74,105.74,0,0,0,8.72-14.39c4.39-8.52,6.34-17.76,7.12-27.21,1.28-15.39-.45-30.3-8.25-44-3.38-5.94-8.12-10.68-13.47-14.85-4.49-3.51-9.88-5.25-14.92-7.69-2.61-1.26-3.73-2.65-3.69-6.07,0-4.15.78-8.23.7-12.3-.09-5.2.91-10.25,1.35-15.34.32-3.73.75-7.55,1.36-11.3,1.45-8.89,3.05-17.76,5-26.56,1-4.61,2.52-9.1,3.61-13.69,2.17-9.09,5.4-17.82,8.34-26.66,1.31-4,3.88-5.07,6.94-6,9.15-2.91,18.54-4.86,27.89-7C219.85,9.08,234.92,6,250,3.15c2.49-.47,5.08-.28,7.52-1.1l1,1C259.59,7.68,258.82,12.38,259,17Z"/><path class="cls-11" d="M259,397.54q0,.25,0,.5,0,20.75,0,41.51c-4.93.47-9.67-1.35-14.62-1.14-2.07.09-4.16-1.37-6.09-2.14-5.85-2.32-11.79-1.84-17.66-1.61-6,.24-10.66-2.18-15-5.76-1.94-1.59-4.43-2.18-6.45-3.68s-4.11-2.88-6.06-4.56c-3.56-3.06-7.65-5.39-12.64-5.65a14.68,14.68,0,0,1-10.16-5.13,92.87,92.87,0,0,1-9-12.44c-1.79-2.79-3.46-5.87-6.15-8.09a6.42,6.42,0,0,1-1.44-2c-3.6-6.91-6.59-14.14-10.45-20.93-.46-.81-1.33-1.87-.22-2.66.94-.66,1.54.35,2.25,1a10.44,10.44,0,0,0,2.82,1.51c1,.39,1.09-.4.76-.91-2.35-3.63-3-8.31-7.85-10.42-2.62-1.14-4.37-4.14-6.35-6.47-3-3.55-4.71-7.95-5.88-12.07a26.21,26.21,0,0,0-7.2-11.46c-2.22-2.2-3.64-5.06-6.16-6.91-.5-.37-.93-.74-.77-1.42a1.34,1.34,0,0,1,1.52-1c2.54,0,3.84-1.37,4.75-3.62.71-1.75,1.91-3.28,2.61-5.09.89-2.32,0-4.59.05-6.87.16-9.49-.72-18.95-.65-28.44,0-3.11-.41-6.28-.39-9.43,0-3,1.7-4.9,4.72-5a77.1,77.1,0,0,0,19.28-3.3c10.59-3.22,19.59-8.85,26.57-17.58,8.25-10.3,12-22.14,12.39-35.21,0-.87.56-2.11-1-2.45q0-3.5,0-7a.93.93,0,0,0,.95-1.13c0-.6-.43-.81-1-.88l-.47-2.49c.52-.08,1.26.12,1.33-.65.09-1-.76-.78-1.34-.87a25.29,25.29,0,0,0-.3-3.17c-.67-3.25-1.17-6.53-1.74-9.8a.9.9,0,0,0-1-1q0-.25,0-.5c-.39-4.06-2.57-7.37-4.66-10.68-1.1-1.74-2.06-3.8-4.45-4.28l.1-.14.12.13c.07-.39.34-1,.18-1.13-1.59-1.62-3.09-3.38-5.3-4.21-.11,0-.36.27-.54.42a47.68,47.68,0,0,0-15.74-6.87c-4.53-1-9.15-1.18-13.74-1.63-.08-1.25-1-1.09-1.82-1.08-2.87,0-5.69-.8-8.59-.54-.34,0-.72-.3-1.08-.47.28-.16.56-.44.85-.45,9.87-.47,19.71-.14,29.15,3.06,16.19,5.48,25.65,17,29.44,33.5a84.85,84.85,0,0,1,.71,34.28,55.24,55.24,0,0,1-8.86,22.45,61.12,61.12,0,0,1-17,16.15c-6.85,4.49-14.59,6.23-22.14,8.6-2.47.78-5.23.63-7.86.93-3.47.4-4.83,1.91-4.85,5.31,0,7.06,1.08,14,1.73,21,.49,5.22,4.17,9.35,7.29,13.54,1.4,1.87,3.37,3,4.85,4.81a24.17,24.17,0,0,1,3.43,6.76c1.84,4.64,3.48,9.37,7.18,12.85,3.16,3,4,7.09,6,10.61a28.29,28.29,0,0,0,9.91,10.69c2.87,1.75,4.13,5.32,5.53,8.4,1.28,2.81,3.45,4.26,6.15,5.57,5.36,2.61,11.34,4,15.52,9a68.76,68.76,0,0,0,6.05,6.78,11.35,11.35,0,0,0,3.13,2.37,16.3,16.3,0,0,1,6.74,4.85,9,9,0,0,0,7.39,3.48c4.28,0,7.85,2.41,11.57,4.21s6.91,4.22,11.21,4.33c1.41,0,2.83,1,4.06,1.67,3.49,1.89,7.35,1.13,11,2.08C255.36,397.83,257.27,396.9,259,397.54Z"/><path class="cls-12" d="M86.53,304.69q0-64.71-.06-129.42c0-.58.07-1.16.11-1.74a5,5,0,0,1,1.3.63c2.62,2.4,5.25,4.8,7.8,7.27,5.16,5,10.06,10.28,15.5,15,.71.62,1.34,1.24,2.37,1.1,0,7.56,0,15.12,0,22.69,0,.87-.52,2.15,1.12,2.28a5.28,5.28,0,0,0,2.85,0H125a30.43,30.43,0,0,0,11.52-1.37,8.23,8.23,0,0,0,2.48,3.63c5.49,5.17,11,10.34,16.49,15.46a4,4,0,0,1,1.52,3.71,30.82,30.82,0,0,1-7.24,3.58,59.6,59.6,0,0,1-21.61,3.17c-4.5-.08-9-.09-13.49-.12-1.94.26-1.13,1.79-1.13,2.75q-.09,26.46-.07,52.91Z"/><path class="cls-6" d="M113.54,197.55c-1,.14-1.66-.48-2.37-1.1-5.44-4.72-10.34-10-15.5-15-2.55-2.47-5.17-4.87-7.8-7.27a5,5,0,0,0-1.3-.63l-.21-24c.3-4.14.3-4.14,5.18-4,0,1.06.89,1.54,1.49,2.2,3.81,4.18,8.48,7.41,12.43,11.44a94,94,0,0,0,10.3,9.34,3.68,3.68,0,0,1,1.85,3.32l-2.89.22c-1.65.07-1.17,1.35-1.17,2.23C113.53,182.07,113.54,189.81,113.54,197.55Z"/><path class="cls-8" d="M86.53,304.69l27,1.56c2,.06,1.14-1.46,1.14-2.26q.09-26.7.06-53.4c4.5,0,9,0,13.49.12a59.6,59.6,0,0,0,21.61-3.17,30.82,30.82,0,0,0,7.24-3.58c4.58-2.15,8.24-5.49,11.63-9.14a32,32,0,0,0,6.38-9.2c.26-.1.49-.22.43-.56a.51.51,0,0,0,.08-.41c.27-.11.52-.24.45-.6a8.22,8.22,0,0,0,1.56-3.37c.27-.12.47-.29.4-.62l.7-1.93c3.19-7.29,3.81-15.08,4.31-22.86a77.92,77.92,0,0,0-.76-13.64c-.41-3.6-1.79-7-2.15-10.57l1,0q0,.25,0,.5a.89.89,0,0,0,1,1c.57,3.27,1.07,6.55,1.74,9.8a25.23,25.23,0,0,1,.3,3.18q0,.76,0,1.52l.47,2.49q0,1,0,2,0,3.5,0,7c-.74,8.92-2.2,17.63-6.47,25.69a53.89,53.89,0,0,1-19,20.62,35.22,35.22,0,0,1-10.55,4.72,1,1,0,0,0-1,.49,50.91,50.91,0,0,1-14.5,2c-4.56.14-9.11-.22-13.69.34-2.38.29-2.85,1.07-2.84,3.21.07,15.49,0,31,0,46.47a22.27,22.27,0,0,1-.29,3.2c-.33,2.25-1.53,2.88-3.61,2.76-6.2-.38-12.44-.42-18.6-1.17-2.45-.3-5.49.71-7.43-1.89A.49.49,0,0,0,86.53,304.69Z"/><path class="cls-4" d="M86.62,305c1.95,2.6,5,1.59,7.43,1.89,6.16.75,12.39.78,18.6,1.17,2.08.13,3.29-.51,3.61-2.76a22.27,22.27,0,0,0,.29-3.2c0-15.49,0-31,0-46.47,0-2.14.47-2.92,2.84-3.21,4.58-.56,9.13-.2,13.69-.34-.22,1.22-1.19.92-2,1a31.42,31.42,0,0,0-5.21.2c-5.14,1.08-7.22,3.71-7.29,9.12,0,2.22.43,4.45.44,6.67.06,8.24-.17,16.48.11,24.7.12,3.49.53,6.89-.63,10.28-1.36,4-3.58,5.69-7.85,6q-6.82.57-13.66.51a15,15,0,0,1-10.14-4C86.4,306.16,85.69,305.69,86.62,305Z"/><path class="cls-2" d="M259,439.55q0-20.75,0-41.51c1.64.42,1,1.76,1,2.69,0,13.32,0,26.65.05,40,0,1-.38,2,.48,2.84.08,1.42,0,2.78-1.49,3.53a1.1,1.1,0,0,0-.5-1v-.5C259.5,443.61,258.86,441.55,259,439.55Z"/><path class="cls-4" d="M147.55,250.06a1,1,0,0,1,1-.49C148.44,250.19,148.33,250.8,147.55,250.06Z"/><path class="cls-13" d="M247.54,447.06c-1.09,2.46-2.77,4-5.67,4-5.08,0-10.18.27-15.24-.08-9.82-.67-19.65-.81-29.45-2.25-9.14-1.34-18.34-2.49-27.57-3.32-7.06-.63-14-2.41-21-3.42-11.89-1.71-23.56-4.49-35.26-7-5.81-1.27-11.49-3.15-17.26-4.63-5.36-1.38-10.63-3-15.92-4.63-13.45-4.1-26.94-8.12-40.41-12.17a2.79,2.79,0,0,1-1.69-1c.29-.41.64-.36,1.09-.23,5.47,1.63,11,3.15,16.44,4.74,7.7,2.24,15.44,4.13,23.32,5.63,9.64,1.84,19.18,4.12,29,4.77,2.71.18,5.4,1,8.1.94a116.25,116.25,0,0,0,11.61-.88c1.86-.2,4.15.2,4.93-2.37,5.84,1,11.7,2,17.53,3.09,11.75,2.23,23.49,4.53,35.24,6.8,12,2.32,24,4.66,36.07,6.93,8.43,1.59,16.87,3.08,25.3,4.64A3.19,3.19,0,0,1,247.54,447.06Z"/><path class="cls-14" d="M132.56,425.15c-.78,2.57-3.07,2.17-4.93,2.37a116.25,116.25,0,0,1-11.61.88c-2.7,0-5.39-.76-8.1-.94-9.83-.65-19.38-2.92-29-4.77-7.88-1.51-15.62-3.4-23.32-5.63-5.48-1.59-11-3.11-16.44-4.74-.44-.13-.79-.18-1.09.23l-1,0c-.18-1.24-1.32-1.14-2.11-1.39-8.22-2.56-16.46-5.06-24.68-7.6-1-.31-2.16-.57-2.24-2a28.67,28.67,0,0,1,5.53.53,1.24,1.24,0,0,0,1.2,0c.47.63,1.17.5,1.82.54,7.23,1.86,14.63,2.92,21.94,4.36,11.8,2.33,23.65,4.43,35.46,6.7,13.31,2.56,26.6,5.21,39.92,7.78,5.67,1.09,11.36,2.06,17,3.1A10.92,10.92,0,0,1,132.56,425.15Z"/><path class="cls-11" d="M258.55,446a1.1,1.1,0,0,1,.5,1v1.13a.58.58,0,0,1,0,.3l-2-.09A5.09,5.09,0,0,1,258.55,446Z"/><path class="cls-8" d="M16.59,402.64c-.65,0-1.35.1-1.82-.54C15.46,402,16.39,401.07,16.59,402.64Z"/><path class="cls-1" d="M180.09,171c.36,3.59,1.75,7,2.15,10.57a77.92,77.92,0,0,1,.76,13.64c-.49,7.78-1.12,15.57-4.31,22.86-.29-.18-.62-.43-.47-.77,1.56-3.59-.32-6-2.8-8.17-3-2.68-6.08-5.35-9.06-8.08-4.62-4.23-9.05-8.66-13.85-12.67-1.62-1.35-2.64-3.14-4.27-4.4-.81-1.82-1.24-3.87-3.12-5l-2.59-3a23.47,23.47,0,0,0-9.26-4.05c-5.22-1-10.44-.09-15.66-.11a3.68,3.68,0,0,0-1.85-3.32,94,94,0,0,1-10.3-9.34c-3.94-4-8.62-7.26-12.43-11.44-.6-.66-1.47-1.14-1.49-2.2q15.16-1,30.32-2c5.05-.33,10.11-.62,15.16-.92,4.59.45,9.22.6,13.74,1.63a47.68,47.68,0,0,1,15.74,6.87,48.77,48.77,0,0,0,5.67,4.92l-.12-.13-.1.14A68,68,0,0,1,180.09,171Z"/><path class="cls-8" d="M259.07,448.21v-1.13c1.5-.75,1.57-2.11,1.49-3.53.87-.92.45-2.07.45-3.1q.06-75.07.08-150.13c0-1.08,0-2.16,0-3.25,1.58-2.11,1.83-4.7,1.85-7.1.07-7.39,1.17-14.69,1.24-22.1.07-7.61.48-15.24,1-22.84.52-8.4-.36-16.84.51-25.15,1.56-14.87.32-29.74.92-44.59.43-10.7.53-21.41,1.08-32.08.52-10.07.08-20.11.4-30.16,0-.88-.58-2.1.9-2.5,0,1.08.07,2.16.07,3.23q0,24.65.07,49.31,0,31.48,0,63,0,32.22,0,64.45,0,8,0,16.09v40l0,48v1.09l0,3.41v9q0,20.81-.08,41.61c0,.83,0,1.66,0,2.49-.18,3.5-1.61,5.09-5,5.55C262.38,447.94,260.72,448,259.07,448.21Z"/><path class="cls-7" d="M269.15,398.06v-6.49c19.84-3.21,39.82-1.21,59.74-1.42,33.66-.37,67.32-.1,101-.1,5.89,0,11.79.23,17.62-1a10.17,10.17,0,0,0,7.44-5.24c1.65-3.07,1.54-6.47,1.54-9.71q.12-145.6,0-291.19c0-3.06-.31-6.13-.54-9.18-.26-3.5-2-6.38-3.94-9.19,3,1.18,4.17,3.8,4.95,6.66,1.81,6.69,2.11,13.51,2.11,20.42q-.11,141,0,281.92A29.61,29.61,0,0,1,457.21,384c-2.36,6.24-7.62,8.8-13.79,10a42.8,42.8,0,0,1-8.44.49q-73,0-146,0C282.16,394.51,275.46,395.07,269.15,398.06Z"/><path class="cls-13" d="M452,64.55c1.9,2.81,3.67,5.69,3.94,9.19.23,3.06.54,6.12.54,9.18q0,145.6,0,291.19c0,3.24.11,6.63-1.54,9.71a10.17,10.17,0,0,1-7.44,5.24c-5.84,1.22-11.73,1-17.62,1-33.66,0-67.32-.26-101,.1-19.91.22-39.89-1.79-59.74,1.42v-2.5c3.48-.2,6.93-.57,10.43-.56q80,.07,160,0a37.22,37.22,0,0,0,8.61-1,8.27,8.27,0,0,0,6.3-6.13,20,20,0,0,0,.63-5.42Q455,228,455,80a10.93,10.93,0,0,0,0-2.49c-.72-3,.31-6.38-2-9-1.46-3.26-4-4-7.46-4q-62.86.13-125.72.06c-9.41,0-18.83,0-28.24.06l-8.49,0c-2,0-4,.06-6-.07-1.71-.11-2.08.64-2.08,2.2q.06,37.17,0,74.34c0,.78-.29,1.76,1,2l-6.9,10.05q0-24.65-.07-49.31c0-1.08,0-2.16-.07-3.23q.05-18.52.1-37c0-.5,0-1,.06-1.49a34.63,34.63,0,0,0,4.18.5q83.62,0,167.24,0h1c3.25,1,6.8.1,10,1.52Z"/><path class="cls-7" d="M440.55,62.54q-83.62,0-167.24,0a34.63,34.63,0,0,1-4.18-.5v-2.5c7.26,3,14.89,2,22.4,2q73,.08,146.07.06C438.61,61.59,440,60.81,440.55,62.54Z"/><path class="cls-7" d="M451.54,64.06c-3.19-1.42-6.74-.51-10-1.52,3.11-1,6.16-.58,9.18.38A1.12,1.12,0,0,1,451.54,64.06Z"/><path class="cls-13" d="M8,401.55c.08,1.41,1.23,1.67,2.24,2,8.23,2.54,16.46,5,24.68,7.6.79.25,1.93.15,2.11,1.39-9.16-2.74-18.33-5.41-27.46-8.24-3.44-1.06-5.3-4.1-4.52-6.76.89,1.15.48,3.19,2.45,3.61l.51.42Z"/><path class="cls-13" d="M5,53l0,.5a2.05,2.05,0,0,1-.15-.36S4.91,53.1,5,53Z"/><path class="cls-11" d="M260.57,3.53c2.54.54,3.54,2.17,3.49,4.69-.06,3.5,0,7,0,10.49a138.06,138.06,0,0,0,.47,14.93c.44,4-.64,8-.42,11.92.54,9.89.46,19.77.43,29.66a44.14,44.14,0,0,1-.41,8.44c-.57,3,.53,5.94.4,8.92-.76,17.46-.16,34.93-.56,52.39-.23,9.93-1.58,19.82-1.43,29.78,0,1-.18,2-1.43,2.33,0-1.08,0-2.16,0-3.25q0-82.93,0-165.86A14.13,14.13,0,0,0,260.57,3.53Z"/><path class="cls-15" d="M260.57,3.53A14.13,14.13,0,0,1,261.06,8q0,82.93,0,165.86c0,1.08,0,2.16,0,3.25q0,49.11-.06,98.21,0,4.12,0,8.25c-1.65-.42-.94-1.77-.94-2.69,0-24.32.82-48.67-.25-72.94-1.4-31.82-.4-63.62-.71-95.42S259,48.85,259,17c-.23-4.66.54-9.36-.49-14l1-1Z"/><path class="cls-14" d="M8,401.55l-.51-.42Z"/><path class="cls-4" d="M180.09,171a68,68,0,0,0-8.14-15c2.38.48,3.34,2.53,4.44,4.28,2.09,3.31,4.27,6.62,4.66,10.68Z"/><path class="cls-3" d="M172.17,156.06a48.77,48.77,0,0,1-5.67-4.92c.18-.15.43-.46.54-.42,2.22.82,3.72,2.58,5.3,4.21C172.51,155.09,172.24,155.67,172.17,156.06Z"/><path class="cls-3" d="M184.09,187.06q0-.76,0-1.52c.59.08,1.44-.13,1.34.87C185.34,187.18,184.61,187,184.09,187.06Z"/><path class="cls-3" d="M184.56,191.55q0-1,0-2c.53.06.92.27,1,.88A.93.93,0,0,1,184.56,191.55Z"/><path class="cls-4" d="M182,172.56a.89.89,0,0,1-1-1A.89.89,0,0,1,182,172.56Z"/><path class="cls-6" d="M148.25,184c1.63,1.26,2.65,3,4.27,4.4,4.8,4,9.23,8.44,13.85,12.67,3,2.73,6,5.4,9.06,8.08,2.48,2.2,4.36,4.58,2.8,8.17-.15.35.18.59.47.77l-.7,1.93-.4.62a8.22,8.22,0,0,1-1.56,3.37l-.45.6a.51.51,0,0,1-.08.41l-.43.56a32,32,0,0,1-6.38,9.2c-3.39,3.66-7,7-11.63,9.14a4,4,0,0,0-1.52-3.71c-5.53-5.12-11-10.3-16.49-15.46a8.23,8.23,0,0,1-2.48-3.63,22.33,22.33,0,0,0,5.78-3.6c6-5.14,7.15-12.16,7.72-19.39C150.44,193.37,149.42,188.68,148.25,184Z"/><path class="cls-11" d="M148.25,184c1.17,4.64,2.19,9.33,1.82,14.13-.56,7.22-1.75,14.24-7.72,19.39a22.33,22.33,0,0,1-5.78,3.6A30.43,30.43,0,0,1,125,222.53c0-.7-.5-1-1-1.25-3.33-1.37-4.36-4.26-4.4-7.41-.13-10.38-.09-20.77,0-31.15,0-3.59,1.81-5.87,5.2-7s7.06-.79,10.59-.43a14,14,0,0,1,8.12,3.39,2.16,2.16,0,0,0,1.66.35C147,180.17,147.44,182.22,148.25,184Zm-24.7,12c-.43,5.13.41,11.58.51,18.05a3.17,3.17,0,0,0,3.18,3.43c.74.08,1.46.29,2.19.37,5.64.6,13.34-1.61,16.13-7.81a31.56,31.56,0,0,0,2.15-17.75c-.63-4.58-2.32-8.65-6.4-11.29s-8.62-2.89-13.19-2.4c-2.94.32-4.57,2.73-4.57,5.8C123.55,187.89,123.55,191.3,123.55,196.06Z"/><path class="cls-4" d="M145.13,179a2.16,2.16,0,0,1-1.66-.35,14,14,0,0,0-8.12-3.39c-3.53-.35-7.1-.74-10.59.43s-5.18,3.41-5.2,7c-.06,10.38-.1,20.77,0,31.15,0,3.16,1.07,6,4.4,7.41.55.23,1,.54,1,1.25h-7.51a7.25,7.25,0,0,1-1-3.54q.06-20.72,0-41.44c0-2.4,1.33-3.78,3.35-3.89,5.74-.31,11.52-1.26,17.22.75,1.77.62,3.45,1.68,5.44,1.65Z"/><path class="cls-8" d="M142.54,176c-2,0-3.67-1-5.44-1.65-5.7-2-11.48-1.06-17.22-.75-2,.11-3.36,1.49-3.35,3.89q.07,20.72,0,41.44a7.25,7.25,0,0,0,1,3.54,5.28,5.28,0,0,1-2.85,0l0-50.41,2.89-.22c5.22,0,10.44-.84,15.66.11A23.47,23.47,0,0,1,142.54,176Z"/><path class="cls-6" d="M114.72,250.59q0,26.7-.06,53.4c0,.8.81,2.32-1.14,2.26q0-26.45.07-52.91C113.59,252.38,112.77,250.85,114.72,250.59Z"/><path class="cls-1" d="M114.74,172.1l0,50.41c-1.64-.13-1.11-1.41-1.12-2.28,0-7.56,0-15.12,0-22.69,0-7.74,0-15.48,0-23.22C113.57,173.45,113.08,172.17,114.74,172.1Z"/><path class="cls-1" d="M177.59,220.68l.4-.62C178.06,220.4,177.86,220.57,177.59,220.68Z"/><path class="cls-1" d="M175.58,224.65l.45-.6C176.1,224.41,175.85,224.54,175.58,224.65Z"/><path class="cls-1" d="M175.07,225.62l.43-.56C175.56,225.4,175.33,225.52,175.07,225.62Z"/><path class="cls-16" d="M269.11,153.09,276,143l8.19-7.93,8.53-6a67.12,67.12,0,0,1,28.05-8.47c3.59-.27,4.26.36,4.26,4q0,28.12,0,56.24c0,3.65,0,3.66,3.55,3.66h56.49c3.41,0,4.12.75,3.84,4.16a67.16,67.16,0,0,1-1.67,10.84c-8.36,33.34-39.85,53.82-73.86,47.94A64.77,64.77,0,0,1,291.13,239l-7-5.09-8.1-7.85-6.89-10Q269.11,184.57,269.11,153.09Z"/><path class="cls-15" d="M269.15,336.59q0-8,0-16.1l4.94-.05h18.47c1,0,2,.08,3,.08H409.49c3.2,0,3.54.36,3.55,3.62,0,2.75,0,5.5,0,8.25,0,4-.17,4.13-4.05,4.13H300.05c-3.33,0-6.66.06-10,.09h-15Z"/><path class="cls-15" d="M269.14,296.59q0-8,0-16.09l5.94,0h15c1,0,2,.08,3,.08l83,0H409.5c3.2,0,3.54.36,3.55,3.63,0,2.75,0,5.5,0,8.25,0,4-.17,4.13-4.05,4.13H300.05c-2.5,0-5,.05-7.49.08H274.09Z"/><path class="cls-14" d="M453,68.54c2.33,2.63,1.3,6,2,9A10.93,10.93,0,0,1,455,80q0,148,0,295.91a20,20,0,0,1-.63,5.42,8.27,8.27,0,0,1-6.3,6.13,37.22,37.22,0,0,1-8.61,1q-80,0-160,0c-3.5,0-7,.36-10.43.56q0-1.7,0-3.41c1.16-.07,2.31-.2,3.47-.2H397.25q21.86,0,43.71-.05c.85,0,2.08.66,2.52-.82a7.62,7.62,0,0,1,1.48-.15c6.5.61,8.09-2.67,8.08-8.31q-.1-146.31,0-292.63Q453,76,453,68.54Z"/><path class="cls-13" d="M275.08,280.45l-5.94,0q0-32.22,0-64.45l6.89,10c-1.24.21-.95,1.19-.95,2Q275.06,254.24,275.08,280.45Z"/><path class="cls-13" d="M269.15,336.59l5.93,0q0,24,0,47.91l-5.93,0Z"/><path class="cls-16" d="M269.12,384.58l5.93,0,8.5,0,6.5,0c.41,0,.83.1,1.24.1H443.48c-.44,1.48-1.67.81-2.52.82q-21.86.08-43.71.05H272.6c-1.16,0-2.31.13-3.47.2Q269.12,385.12,269.12,384.58Z"/><path class="cls-13" d="M269.14,296.59l4.94.05q0,11.9,0,23.8l-4.94.05Q269.15,308.55,269.14,296.59Z"/><path class="cls-1" d="M443.48,384.62H291.29c-.41,0-.83-.07-1.24-.1V336.64c3.33,0,6.66-.09,10-.09H409c3.88,0,4-.17,4.05-4.13,0-2.75,0-5.5,0-8.25,0-3.26-.35-3.62-3.55-3.62H295.55c-1,0-2,0-3-.08q0-11.91,0-23.83c2.5,0,5-.08,7.49-.08H409c3.88,0,4-.17,4.05-4.13,0-2.75,0-5.5,0-8.25,0-3.26-.35-3.62-3.55-3.63H376l-83,0c-1,0-2-.05-3-.08q0-19.33,0-38.66c0-1.06-.22-2.22,1.08-2.79a64.77,64.77,0,0,0,22.26,8.48c34,5.88,65.5-14.59,73.86-47.94a67.16,67.16,0,0,0,1.67-10.84c.28-3.41-.43-4.16-3.84-4.16H328.6c-3.55,0-3.55,0-3.55-3.66q0-28.12,0-56.24c0-3.62-.67-4.25-4.26-4a67.12,67.12,0,0,0-28.05,8.47c-1.3-.52-1.18-1.64-1.18-2.73q0-30.89,0-61.78c9.41,0,18.83-.06,28.24-.06q62.86,0,125.72-.06c3.42,0,6,.78,7.46,4q0,7.5,0,15,0,146.31,0,292.63c0,5.63-1.59,8.92-8.08,8.31A7.62,7.62,0,0,0,443.48,384.62ZM372.91,168.55q14.37,0,28.75,0c2.6,0,3.49-.9,3.31-3.49s-.49-5-.89-7.43c-4.76-28.91-30-51.48-59.13-53-3.07-.16-3.89.59-3.89,3.67q0,28.25,0,56.5c0,3.09.7,3.76,3.86,3.76Z"/><path class="cls-7" d="M284.19,135.11,276,143c-1.24-.2-1-1.18-1-2q0-37.17,0-74.34c0-1.56.36-2.31,2.08-2.2,2,.13,4,.05,6,.07q0,34.08,0,68.16C283.06,133.69,282.69,134.87,284.19,135.11Z"/><path class="cls-6" d="M284.19,135.11c-1.5-.24-1.14-1.42-1.14-2.35q0-34.08,0-68.16l8.49,0q0,30.89,0,61.78c0,1.09-.12,2.21,1.18,2.73Z"/><path class="cls-2" d="M123.55,196.06c0-4.76,0-8.17,0-11.59,0-3.07,1.63-5.48,4.57-5.8,4.58-.5,9.15-.23,13.19,2.4s5.76,6.72,6.4,11.29a31.56,31.56,0,0,1-2.15,17.75c-2.79,6.19-10.49,8.4-16.13,7.81-.74-.08-1.46-.3-2.19-.37a3.17,3.17,0,0,1-3.18-3.43C124,207.64,123.12,201.19,123.55,196.06Z"/><path class="cls-7" d="M275.08,280.45q0-26.22,0-52.43c0-.78-.29-1.76.95-2l8.1,7.85a5.54,5.54,0,0,0-.56,2.89q0,21.83,0,43.65Z"/><path class="cls-6" d="M283.57,280.46q0-21.83,0-43.65a5.54,5.54,0,0,1,.56-2.89l7,5.09c-1.3.57-1.08,1.73-1.08,2.79q0,19.33,0,38.66Z"/><path class="cls-7" d="M283.55,384.53l-8.5,0q0-24,0-47.91h8.48Q283.56,360.58,283.55,384.53Z"/><path class="cls-6" d="M283.55,384.53q0-23.95,0-47.9h6.5q0,23.94,0,47.87Z"/><path class="cls-7" d="M274.09,320.45q0-11.9,0-23.8h10q0,11.91,0,23.83Z"/><path class="cls-6" d="M284.06,320.46q0-11.91,0-23.83h8.49q0,11.91,0,23.83Z"/><path class="cls-15" d="M372.91,168.55h-28c-3.16,0-3.86-.67-3.86-3.76q0-28.25,0-56.5c0-3.08.82-3.83,3.89-3.67,29.17,1.52,54.37,24.1,59.13,53,.4,2.46.72,4.94.89,7.43s-.71,3.48-3.31,3.49Q387.28,168.57,372.91,168.55Z"/></g></g></g></svg>