<svg xmlns="http://www.w3.org/2000/svg" viewBox="0 0 480.03 473.51"><defs><style>.cls-1{fill:#ea8dfe;}.cls-2{fill:#380842;}</style></defs><title>pr</title><g id="Layer_2" data-name="Layer 2"><g id="Layer_1-2" data-name="Layer 1"><path class="cls-1" d="M240.26,0H476.51C480.4,0,480-.37,480,3.49q0,231,0,462c0,6-2.14,8-8,8q-232,0-464,0c-5.86,0-8-2-8-8Q-.08,234.39,0,3.27C0,0,0,0,3.26,0h237ZM240,448q108.49,0,217,.06c2.55,0,3.07-.64,3.07-3.11q-.1-211,0-421.94c0-2.54-.62-3.08-3.11-3.08Q240,20,23,19.93c-2.55,0-3.07.64-3.07,3.11q.09,211,0,421.94c0,2.56.66,3.07,3.12,3.07Q131.55,447.94,240,448Zm.23,20.12H7.53c-1.17,0-2.33,0-3.5,0s-1.23.57-.52,1.41c1.28,1.5,3,1.55,4.77,1.55q231.73,0,463.46,0h2a2.06,2.06,0,0,0,1.6-.57c.54-.59,1.74-.86,1.54-1.78-.24-1.09-1.39-.53-2.14-.59-1.07-.1-2.16,0-3.25,0Z"/><path class="cls-2" d="M240,448q-108.49,0-217,.06c-2.46,0-3.12-.5-3.12-3.07Q20.06,234,20,23c0-2.47.52-3.11,3.07-3.11q217,.1,433.94,0c2.48,0,3.11.54,3.11,3.08q-.1,211,0,421.94c0,2.47-.52,3.12-3.07,3.11Q348.52,447.94,240,448ZM126.5,216.9h0q0,53.25,0,106.5c0,3.42.16,3.58,3.49,3.59h28.5c3.33,0,3.52-.19,3.52-3.57q0-34.62,0-69.25c0-1.42.11-2.84,0-4.25-.17-1.7.51-2.13,2.11-2,2.74.17,5.5.1,8.25.19,13.24.39,26.31-.66,39-4.69,21.63-6.88,37.39-20.12,44.44-42.24a82.51,82.51,0,0,0,1.71-43.92c-3.53-15.56-11.43-28.15-25-37.17-13.24-8.8-27.86-12.76-43.44-13.5-19.57-.94-39.15-.07-58.72.51-3.75.11-3.84.24-3.84,4.08Q126.5,164,126.5,216.9ZM290,253.65h0q0,34.75,0,69.49c0,3.78.06,3.84,3.73,3.84H322c4,0,4,0,4-4.07q0-60.24,0-120.49c0-4,0-4.06,3.95-5a126.73,126.73,0,0,1,33-2.76c2.23.07,3.1-.53,3.07-2.93-.12-9.08-.1-18.16,0-27.25,0-2.22-.82-3-2.93-2.91-5.41.15-10.82.35-16.22.85A212.37,212.37,0,0,0,291.83,175c-2.27.85-3.06,2.11-2.8,4.49a154.75,154.75,0,0,1,1,16.71Q290,224.91,290,253.65Z"/><path class="cls-1" d="M240.26,468.11H471.49c1.08,0,2.17-.07,3.25,0,.74.07,1.89-.5,2.14.59.21.92-1,1.19-1.54,1.78a2.06,2.06,0,0,1-1.6.57h-2q-231.73,0-463.46,0c-1.81,0-3.48-.05-4.77-1.55-.71-.83-.67-1.35.52-1.41s2.33,0,3.5,0Z"/><path class="cls-1" d="M126.5,216.9q0-52.87,0-105.75c0-3.85.09-4,3.84-4.08,19.57-.59,39.15-1.45,58.72-.51,15.58.75,30.19,4.71,43.44,13.5,13.58,9,21.48,21.6,25,37.17a82.51,82.51,0,0,1-1.71,43.92c-7.05,22.12-22.81,35.36-44.44,42.24-12.69,4-25.76,5.09-39,4.69-2.75-.08-5.5,0-8.25-.19-1.6-.1-2.28.32-2.11,2,.14,1.4,0,2.83,0,4.25q0,34.62,0,69.25c0,3.38-.2,3.57-3.52,3.57H130c-3.33,0-3.49-.16-3.49-3.59q0-53.25,0-106.5ZM162,177.24q0,18.12,0,36.24c0,1.08-.45,2.42,1.5,2.43,10.4.09,20.84.89,31.11-1.49,10.86-2.51,19.81-7.75,24.83-18.23,3.58-7.48,4.46-15.49,3.9-23.63-1.32-19.08-11.91-30.55-30.78-33.67-9.71-1.6-19.43-.78-29.16-.42-1.83.07-1.38,1.29-1.38,2.28Q162,159,162,177.24Z"/><path class="cls-1" d="M290,253.65q0-28.75,0-57.49a154.75,154.75,0,0,0-1-16.71c-.26-2.37.53-3.64,2.8-4.49a212.37,212.37,0,0,1,55.07-12.51c5.4-.5,10.8-.7,16.22-.85,2.11-.06,3,.69,2.93,2.91-.1,9.08-.11,18.17,0,27.25,0,2.39-.84,3-3.07,2.93a126.73,126.73,0,0,0-33,2.76c-4,.92-3.95,1-3.95,5q0,60.24,0,120.49c0,4,0,4.07-4,4.07H293.75c-3.68,0-3.73-.06-3.73-3.84q0-34.75,0-69.49Z"/><path class="cls-2" d="M162,177.24q0-18.24,0-36.49c0-1-.45-2.21,1.38-2.28,9.73-.36,19.46-1.19,29.16.42,18.88,3.12,29.46,14.58,30.78,33.67.57,8.15-.32,16.15-3.9,23.63-5,10.48-14,15.72-24.83,18.23-10.27,2.37-20.71,1.58-31.11,1.49-2,0-1.5-1.36-1.5-2.43Q162,195.36,162,177.24Z"/></g></g></svg>