<svg xmlns="http://www.w3.org/2000/svg" viewBox="0 0 489.09 479.09"><defs><style>.cls-1{fill:#3fcffa;}.cls-2{fill:#1f1e38;}</style></defs><title>ps</title><g id="Layer_2" data-name="Layer 2"><g id="Layer_1-2" data-name="Layer 1"><path class="cls-1" d="M0,0Q243.42,0,486.8,0c1.87,0,2.3.42,2.3,2.3q-.08,237.25,0,474.5c0,1.87-.42,2.3-2.3,2.3q-242.25-.08-484.5,0c-1.87,0-2.3-.42-2.3-2.3Q.08,238.42,0,0ZM282,20.63c-1,0-2-.1-3-.1q-125.72,0-251.45,0c-2.52,0-3.12.6-3.11,3.12q.1,125.35,0,250.7c0,.91.06,1.83.1,2.74s-.06,1.66-.06,2.49q0,83.12-.09,166.24c0,2.3.6,2.83,2.85,2.83q217.24-.08,434.47,0c2.3,0,2.83-.6,2.82-2.85q-.09-211.24,0-422.47c0-2.28-.58-2.84-2.84-2.84q-80.74.12-161.49.09C294.21,20.57,288.13,20.61,282,20.63Zm-37.22,448H13.37c-1.58,0-3.17,0-4.75,0-.78,0-1.9-.38-2.25.57s.49,1.87,1.23,2.54c1.65,1.48,3.71,1.24,5.7,1.24H475.73a27.16,27.16,0,0,0,3-.08,4.59,4.59,0,0,0,3.42-1.84c.39-.55.86-1.14.64-1.82s-1.11-.58-1.74-.6c-1.58-.06-3.17-.06-4.75-.06Z"/><path class="cls-2" d="M282,20.63c6.08,0,12.16-.07,18.25-.07q80.74,0,161.49-.09c2.27,0,2.84.55,2.84,2.84q-.09,211.24,0,422.47c0,2.25-.52,2.85-2.82,2.85q-217.24-.1-434.47,0c-2.25,0-2.86-.53-2.85-2.83q.12-83.12.09-166.24c0-.83,0-1.66.06-2.49a6.5,6.5,0,0,1,1.3.68q7.21,6.13,14.57,12.09a247,247,0,0,0,39.57,26,226.14,226.14,0,0,0,45.28,18.3A189,189,0,0,0,170.8,341a152,152,0,0,0,26.8-1.91,142.06,142.06,0,0,0,80.48-41.33c.69-.7,1.28-1.58,2.38-1.71,0,7.5.09,15,0,22.49a4.06,4.06,0,0,0,1.8,3.84,25.15,25.15,0,0,0,5.19,2.58,110.31,110.31,0,0,0,40.9,5.56,78.54,78.54,0,0,0,17.57-3c29.76-8.74,43.93-41.17,29.69-68.06-5.28-10-13.9-16.65-23.37-22.24-6.3-3.72-12.89-7-19.32-10.49a68.38,68.38,0,0,1-13.25-8.88c-4.17-3.76-6.11-8.36-4.55-13.9,1.77-6.27,6.69-9.11,12.61-10.36,8.64-1.82,17.21-.61,25.69,1.24a51.14,51.14,0,0,1,15.5,5.8c3.14,1.87,4.58.94,4.58-2.62,0-8.66,0-17.33,0-26a4.5,4.5,0,0,0-3.22-4.74,58.45,58.45,0,0,0-9.08-2.66A117.77,117.77,0,0,0,323.54,163a9.6,9.6,0,0,0,1-5.57c-.46-5-1-10.06-1.44-15.09a242.64,242.64,0,0,0-5.73-33.6,303.55,303.55,0,0,0-16.51-50.43,224.77,224.77,0,0,0-10.42-22.09C287.53,31.08,284.83,25.83,282,20.63Z"/><path class="cls-2" d="M282,20.63c2.78,5.2,5.48,10.44,8.37,15.58a224.77,224.77,0,0,1,10.42,22.09,303.55,303.55,0,0,1,16.51,50.43,242.64,242.64,0,0,1,5.73,33.6c.44,5,1,10.06,1.44,15.09a9.6,9.6,0,0,1-1,5.57,96,96,0,0,0-12.95,3.58,47,47,0,0,0-19.35,13.25c-9.33,11.07-12.11,24.08-10.15,38.31,1.7,12.37,8.61,21.37,17.91,29,2.58,2.13,5.82,3.31,8.05,5.87a5.63,5.63,0,0,1-.68,2.87,171.88,171.88,0,0,1-14.23,24.55c-2.12,3-4.38,5.79-6.62,8.65a9.78,9.78,0,0,1-2.06-1.31c-1.86-1.29-2.82-.73-2.89,1.57s-.07,4.45-.11,6.68c-1.1.14-1.69,1-2.38,1.71a142.06,142.06,0,0,1-80.48,41.33A152,152,0,0,1,170.8,341a189,189,0,0,1-45.45-6.94,226.14,226.14,0,0,1-45.28-18.3,247,247,0,0,1-39.57-26q-7.37-5.94-14.57-12.09a6.5,6.5,0,0,0-1.3-.68c0-.91-.1-1.83-.1-2.74q0-125.35,0-250.7c0-2.51.59-3.12,3.11-3.12q125.72.1,251.45,0C280.05,20.54,281,20.6,282,20.63Zm-149.48,307a16.8,16.8,0,0,0,8.47,0h5a36.57,36.57,0,0,0,13-.06c1.22-.88,1-2.19,1-3.42q0-34.61,0-69.23c0-6.6,0-6.67,6.67-6.28a141.45,141.45,0,0,0,30.37-1.35,74.12,74.12,0,0,0,15.14-4.15,90.27,90.27,0,0,0,14.29-6.64c11.53-7,20.23-16.5,25.31-29,7.37-18.14,7.7-36.8,2.56-55.5-5.57-20.26-19.25-33.07-38.67-40-10.66-3.83-21.82-5.13-33.1-5.19s-22.81.13-34.22.3c-6.24.09-12.48.31-18.72.59-4.4.19-5.18,1.09-5.18,5.34q0,40.24,0,80.47,0,65.23.05,130.45c0,1.26-.5,2.73,1,3.63a4,4,0,0,0,4,.06Z"/><path class="cls-1" d="M244.83,468.62H476.29c1.58,0,3.17,0,4.75.06.62,0,1.47-.22,1.74.6s-.25,1.27-.64,1.82a4.59,4.59,0,0,1-3.42,1.84,27.16,27.16,0,0,1-3,.08H13.3c-2,0-4.05.24-5.7-1.24-.74-.67-1.62-1.48-1.23-2.54s1.47-.53,2.25-.57c1.58-.08,3.17,0,4.75,0Z"/><path class="cls-1" d="M280.46,296.07c0-2.23,0-4.46.11-6.68s1-2.85,2.89-1.57a9.77,9.77,0,0,0,2.06,1.31,72.61,72.61,0,0,0,35.93,10.3,37.66,37.66,0,0,0,14.92-2.18,14.12,14.12,0,0,0,5.38-22.79,48.85,48.85,0,0,0-9.79-7.88,131.11,131.11,0,0,0-15.32-8.46c-3.26-1.58-6.13-3.88-9.6-5.06-2.24-2.56-5.47-3.74-8.05-5.87-9.3-7.67-16.2-16.67-17.91-29-2-14.23.82-27.24,10.15-38.31a47,47,0,0,1,19.35-13.25A96,96,0,0,1,323.54,163a117.77,117.77,0,0,1,37.73,1.58,58.45,58.45,0,0,1,9.08,2.66,4.5,4.5,0,0,1,3.22,4.74c-.07,8.66,0,17.33,0,26,0,3.56-1.45,4.49-4.58,2.62a51.14,51.14,0,0,0-15.5-5.8c-8.48-1.85-17-3.06-25.69-1.24-5.92,1.25-10.84,4.09-12.61,10.36-1.56,5.53.39,10.14,4.55,13.9A68.38,68.38,0,0,0,333,226.7c6.42,3.52,13,6.76,19.32,10.49,9.47,5.59,18.08,12.26,23.37,22.24,14.24,26.9.07,59.32-29.69,68.06a78.54,78.54,0,0,1-17.57,3,110.31,110.31,0,0,1-40.9-5.56,25.15,25.15,0,0,1-5.19-2.58,4.06,4.06,0,0,1-1.8-3.84C280.55,311.06,280.48,303.56,280.46,296.07Z"/><path class="cls-1" d="M125.54,327.55c-1.46-.9-1-2.37-1-3.63q0-65.23-.05-130.45,0-40.24,0-80.47c0-4.25.78-5.15,5.18-5.34,6.24-.27,12.48-.49,18.72-.59,11.41-.17,22.81-.37,34.22-.3s22.43,1.37,33.1,5.19c19.42,7,33.1,19.78,38.67,40,5.14,18.7,4.81,37.35-2.56,55.5-5.08,12.49-13.78,22-25.31,29a90.27,90.27,0,0,1-14.29,6.64,74.12,74.12,0,0,1-15.14,4.15,141.45,141.45,0,0,1-30.37,1.35c-6.67-.38-6.67-.32-6.67,6.28q0,34.61,0,69.23c0,1.23.23,2.54-1,3.42l-13,.06H129.53Zm34.53-149.88h0q0,18.23,0,36.47c0,1.21-.14,2.31,1.67,2.33,10.14.12,20.31.81,30.35-1.39,13.07-2.85,23-9.57,27.26-22.83A50.63,50.63,0,0,0,221,169c-1.86-12.67-8.41-21.85-20.43-26.81A51.92,51.92,0,0,0,186.85,139c-8.14-1-16.29-.11-24.43,0-2,0-2.39.86-2.38,2.69C160.11,153.69,160.07,165.68,160.07,177.67Z"/><path class="cls-2" d="M307,253.05c3.46,1.18,6.34,3.47,9.6,5.06A131.11,131.11,0,0,1,332,266.57a48.85,48.85,0,0,1,9.79,7.88,14.12,14.12,0,0,1-5.38,22.79,37.66,37.66,0,0,1-14.92,2.18,72.61,72.61,0,0,1-35.93-10.3c2.24-2.86,4.5-5.69,6.62-8.65a171.88,171.88,0,0,0,14.23-24.55A5.63,5.63,0,0,0,307,253.05Z"/><path class="cls-2" d="M146.06,327.61l13-.06A36.57,36.57,0,0,1,146.06,327.61Z"/><path class="cls-2" d="M132.56,327.61H141A16.8,16.8,0,0,1,132.56,327.61Z"/><path class="cls-2" d="M125.54,327.55l4,.06A4,4,0,0,1,125.54,327.55Z"/><path class="cls-2" d="M160.07,177.67c0-12,0-24,0-36,0-1.83.34-2.66,2.38-2.69,8.14-.11,16.29-1,24.43,0a51.92,51.92,0,0,1,13.72,3.24c12,5,18.57,14.14,20.43,26.81a50.63,50.63,0,0,1-1.67,23.2c-4.3,13.26-14.19,20-27.26,22.83-10,2.19-20.2,1.5-30.35,1.39-1.82,0-1.67-1.13-1.67-2.33q0-18.23,0-36.47Z"/></g></g></svg>