<svg id="Layer_1" data-name="Layer 1" xmlns="http://www.w3.org/2000/svg" viewBox="0 0 928.09 582.07"><defs><style>.cls-1{fill:#fff;}</style></defs><title>down_arrow</title><polygon class="cls-1" points="464.04 553.52 463.76 553.81 374.28 464.33 374.58 464.03 28.29 117.73 117.73 28.28 464.04 374.59 810.35 28.28 899.8 117.73 553.49 464.04 553.79 464.34 464.33 553.81 464.04 553.52"/><path d="M846.31,265.53l61.17,61.17L561.17,673l.3.3L500.3,734.47l-.3-.3-.3.3L438.53,673.3l.3-.3L92.53,326.7l61.17-61.17L500,611.84,846.31,265.53m0-56.57L818,237.25l-318,318-318-318L153.69,209l-28.28,28.28L64.24,298.41,36,326.7,64.24,355l318,318-.3.3,28.27,28.27,61.17,61.17L499.69,791l.31-.31.31.31,28.27-28.28,61.17-61.17L618,673.31l-.3-.3,318-318L964,326.7l-28.28-28.28-61.17-61.17L846.31,209Z" transform="translate(-35.96 -208.96)"/></svg>