<svg id="Layer_1" data-name="Layer 1" xmlns="http://www.w3.org/2000/svg" viewBox="0 0 582.08 928.09"><defs><style>.cls-1{fill:#fff;}</style></defs><title>right_arrow</title><polygon class="cls-1" points="28.28 810.35 374.59 464.04 28.28 117.73 117.73 28.28 464.06 374.61 464.37 374.31 553.78 463.73 553.48 464.03 553.79 464.34 464.37 553.77 464.06 553.47 117.73 899.8 28.28 810.35"/><path d="M326.7,92.53,673,438.83l.3-.3,61.17,61.17-.3.3.3.3L673.3,561.47l-.3-.3L326.7,907.47l-61.17-61.17L611.84,500,265.53,153.69,326.7,92.53m0-56.57L298.41,64.24l-61.17,61.17L209,153.69,237.25,182l318,318-318,318L209,846.31l28.28,28.28,61.17,61.17L326.7,964,355,935.76l318-318,.3.3,28.27-28.27,61.17-61.17L791,500.31l-.3-.3.31-.31-28.28-28.28-61.17-61.17L673.31,382l-.3.3-318-318L326.7,36Z" transform="translate(-208.96 -35.96)"/></svg>