<svg id="Layer_1" data-name="Layer 1" xmlns="http://www.w3.org/2000/svg" viewBox="0 0 928.09 582.07"><defs><style>.cls-1{fill:#fff;}</style></defs><title>up_arrow</title><polygon class="cls-1" points="464.04 207.48 117.73 553.78 28.29 464.33 374.59 118.03 374.29 117.72 463.73 28.29 464.04 28.6 464.36 28.29 553.78 117.71 553.48 118.02 899.8 464.33 810.35 553.78 464.04 207.48"/><path d="M500.3,265.53l61.17,61.17-.3.3L907.47,673.3l-61.17,61.17L500,388.16,153.69,734.47,92.53,673.3,438.83,327l-.3-.3,61.17-61.17.3.3.3-.3m0-56.56-.31.31-.31-.31-28.27,28.28-61.17,61.17L382,326.69l.3.3-318,318L36,673.3l28.28,28.28,61.17,61.17L153.69,791,182,762.75l318-318,318,318L846.31,791l28.28-28.28,61.17-61.17L964,673.3,935.76,645l-318-318,.3-.3-28.27-28.27-61.17-61.17L500.31,209Z" transform="translate(-35.96 -208.97)"/></svg>