<svg xmlns="http://www.w3.org/2000/svg" viewBox="0 0 689.05 689.05"><defs><style>.cls-1{fill:#fff;}</style></defs><title>Asset 4</title><g id="Layer_2" data-name="Layer 2"><g id="Layer_1-2" data-name="Layer 1"><path class="cls-1" d="M686.32,615.16,421.82,351a9.3,9.3,0,0,1,0-13.15L685.92,73.39a9.3,9.3,0,0,0,0-13.15L628.31,2.72a9.3,9.3,0,0,0-13.15,0L351,267.23a9.3,9.3,0,0,1-13.15,0L73.39,3.12a9.3,9.3,0,0,0-13.15,0L2.72,60.73a9.3,9.3,0,0,0,0,13.15L267.23,338a9.3,9.3,0,0,1,0,13.15L3.12,615.66a9.3,9.3,0,0,0,0,13.15l57.6,57.52a9.3,9.3,0,0,0,13.15,0L338,421.82a9.3,9.3,0,0,1,13.15,0l264.5,264.12a9.3,9.3,0,0,0,13.15,0l57.52-57.6A9.3,9.3,0,0,0,686.32,615.16Z"/></g></g></svg>