<svg id="Layer_1" data-name="Layer 1" xmlns="http://www.w3.org/2000/svg" viewBox="0 0 582.08 928.09"><defs><style>.cls-1{fill:#fff;}</style></defs><title>left_arrow</title><polygon class="cls-1" points="118.06 553.51 117.76 553.82 28.28 464.34 28.57 464.05 28.27 463.75 117.73 374.29 118.03 374.59 464.34 28.28 553.79 117.73 207.49 464.04 553.79 810.35 464.34 899.8 118.06 553.51"/><path d="M673.3,92.53l61.17,61.17L388.16,500,734.47,846.31,673.3,907.47,327,561.17l-.3.3L265.53,500.3l.3-.3-.3-.3,61.17-61.17.3.3L673.3,92.53m0-56.57L645,64.24l-318,318-.3-.3-28.27,28.27-61.17,61.17L209,499.69l.3.3-.31.31,28.28,28.28,61.17,61.17L326.69,618l.3-.3,318,318L673.3,964l28.28-28.28,61.17-61.17L791,846.31,762.75,818l-318-318,318-318L791,153.69l-28.28-28.28L701.59,64.24,673.3,36Z" transform="translate(-208.96 -35.96)"/></svg>