<svg xmlns="http://www.w3.org/2000/svg" viewBox="0 0 276.06 313.28"><defs><style>.cls-1{fill:none;stroke:#fff;stroke-miterlimit:10;}</style></defs><title>orbit2</title><g id="Layer_2" data-name="Layer 2"><g id="Layer_1-2" data-name="Layer 1"><path class="cls-1" d="M211.05,105.08c39.15,80.18,38.2,168.27-2.13,196.75S104.16,288.39,65,208.2,26.8,39.93,67.13,11.46,171.9,24.9,211.05,105.08Z"/><path class="cls-1" d="M179.78,86.74c53.08,77.09,77.43,170.88,54.37,209.49s-84.78,7.41-137.87-69.68S18.85,55.67,41.91,17.06,126.69,9.65,179.78,86.74Z"/><path class="cls-1" d="M150.39,73.72C213.36,144.64,258.87,239.25,252,285s-63.4,25.43-126.37-45.49S17.19,74,24,28.24,87.42,2.81,150.39,73.72Z"/><path class="cls-1" d="M124,66c68.85,62.31,131,153.42,138.72,203.49s-41.76,40.15-110.6-22.16S21.13,93.89,13.37,43.82,55.12,3.67,124,66Z"/><path class="cls-1" d="M101.35,63.22c70.94,52,144.87,135.89,165.13,187.49s-20.84,51.3-91.78-.65S29.83,114.17,9.58,62.57,30.41,11.27,101.35,63.22Z"/><path class="cls-1" d="M83.09,65c69.61,40.51,150.64,114.39,181,165s-1.49,58.83-71.11,18.31S42.33,133.91,12,83.29,13.48,24.46,83.09,65Z"/><path class="cls-1" d="M69.48,70.62c65.32,28.63,149,90.36,186.83,137.86s15.59,62.81-49.73,34.18S57.61,152.31,19.75,104.8,4.15,42,69.48,70.62Z"/><path class="cls-1" d="M60.57,79.43c58.63,16.9,140.84,65.16,183.62,107.8s29.93,63.51-28.7,46.62S74.65,168.69,31.87,126,1.94,62.54,60.57,79.43Z"/><path class="cls-1" d="M56.19,90.65c50.12,5.81,127.38,40.07,172.58,76.52s41.21,61.28-8.91,55.47S92.48,182.57,47.28,146.12,6.07,84.83,56.19,90.65Z"/></g></g></svg>