<svg xmlns="http://www.w3.org/2000/svg" viewBox="0 0 1350.56 867.82"><defs><style>.cls-1{fill:none;stroke:#f2f2f2;stroke-miterlimit:10;stroke-width:2px;}</style></defs><title>triangles</title><g id="Layer_2" data-name="Layer 2"><g id="Layer_1-2" data-name="Layer 1"><polygon class="cls-1" points="1347.24 323.55 1024.69 1 119.7 1 1347.24 323.55"/><polygon class="cls-1" points="1333.25 337.54 1010.7 14.99 105.7 14.99 1333.25 337.54"/><polygon class="cls-1" points="1319.25 351.54 996.71 28.99 91.71 28.99 1319.25 351.54"/><polygon class="cls-1" points="1305.26 365.53 982.71 42.98 77.72 42.98 1305.26 365.53"/><polygon class="cls-1" points="1291.26 379.52 968.72 56.98 63.72 56.98 1291.26 379.52"/><polygon class="cls-1" points="1277.27 393.52 954.72 70.97 49.73 70.97 1277.27 393.52"/><polygon class="cls-1" points="1263.27 407.51 940.73 84.97 35.73 84.97 1263.27 407.51"/><polygon class="cls-1" points="1249.28 421.51 926.73 98.96 21.74 98.96 1249.28 421.51"/><polygon class="cls-1" points="1235.28 435.5 912.74 112.96 7.74 112.96 1235.28 435.5"/><polygon class="cls-1" points="851.24 152.5 322.24 579.5 851.24 454.5 851.24 152.5"/><polygon class="cls-1" points="863.24 164.5 334.24 591.5 863.24 466.5 863.24 164.5"/><polygon class="cls-1" points="875.24 176.5 346.24 603.5 875.24 478.5 875.24 176.5"/><polygon class="cls-1" points="887.24 188.5 358.24 615.5 887.24 490.5 887.24 188.5"/><polygon class="cls-1" points="899.24 200.5 370.24 627.5 899.24 502.5 899.24 200.5"/><polygon class="cls-1" points="911.24 212.5 382.24 639.5 911.24 514.5 911.24 212.5"/><polygon class="cls-1" points="923.24 224.5 394.24 651.5 923.24 526.5 923.24 224.5"/><polygon class="cls-1" points="935.24 236.5 406.24 663.5 935.24 538.5 935.24 236.5"/><polygon class="cls-1" points="947.24 248.5 418.24 675.5 947.24 550.5 947.24 248.5"/><polygon class="cls-1" points="785.74 389 1182.24 785.5 784.74 651 785.74 389"/><polygon class="cls-1" points="775.74 399 1172.24 795.5 774.74 661 775.74 399"/><polygon class="cls-1" points="765.74 409 1162.24 805.5 764.74 671 765.74 409"/><polygon class="cls-1" points="755.74 419 1152.24 815.5 754.74 681 755.74 419"/><polygon class="cls-1" points="745.74 429 1142.24 825.5 744.74 691 745.74 429"/><polygon class="cls-1" points="735.74 439 1132.24 835.5 734.74 701 735.74 439"/><polygon class="cls-1" points="725.74 449 1122.24 845.5 724.74 711 725.74 449"/><polygon class="cls-1" points="715.74 459 1112.24 855.5 714.74 721 715.74 459"/><polygon class="cls-1" points="705.74 469 1102.24 865.5 704.74 731 705.74 469"/></g></g></svg>